<?xml version="1.0" encoding="utf-8"?>
<!-- Generator: Adobe Illustrator 17.0.0, SVG Export Plug-In . SVG Version: 6.00 Build 0)  -->
<!DOCTYPE svg PUBLIC "-//W3C//DTD SVG 1.1//EN" "http://www.w3.org/Graphics/SVG/1.1/DTD/svg11.dtd">
<svg version="1.1" id="Layer_1" xmlns="http://www.w3.org/2000/svg" xmlns:xlink="http://www.w3.org/1999/xlink" x="0px" y="0px"
	 width="268.733px" height="269.946px" viewBox="0 0 268.733 269.946" enable-background="new 0 0 268.733 269.946"
	 xml:space="preserve">
<g>
	<g>
		<path fill="#258DC8" d="M0,134.526c0.19-2.29,0.408-4.962,0.636-7.633c0.227-2.668,0.347-5.352,0.725-8
			c0.546-3.825,1.208-7.637,1.958-11.427c0.617-3.121,1.367-6.22,2.185-9.294c0.621-2.335,1.387-4.636,2.187-6.918
			c1.103-3.145,2.236-6.282,3.477-9.374c0.879-2.19,1.907-4.325,2.961-6.438c1.31-2.627,2.612-5.267,4.105-7.79
			c1.827-3.088,3.765-6.119,5.808-9.069c2.284-3.299,4.589-6.604,7.158-9.678c3.021-3.615,6.283-7.033,9.536-10.446
			c3.098-3.25,6.559-6.105,10.058-8.92c5.544-4.459,11.376-8.496,17.528-12.047c4.492-2.593,9.117-4.959,13.969-6.841
			c3.159-1.225,6.267-2.608,9.485-3.651c3.592-1.164,7.266-2.091,10.935-2.994c3.587-0.882,7.198-1.686,10.827-2.368
			c2.4-0.451,4.854-0.6,7.278-0.933c5.807-0.796,11.65-0.752,17.485-0.652c3.188,0.055,6.375,0.38,9.555,0.666
			c2.435,0.219,4.872,0.486,7.283,0.885c2.522,0.417,5.026,0.965,7.516,1.548c3.071,0.719,6.155,1.418,9.171,2.333
			c3.783,1.148,7.508,2.49,11.247,3.779c4.35,1.499,8.481,3.5,12.566,5.593c5.843,2.993,11.405,6.445,16.673,10.365
			c2.557,1.903,5.123,3.797,7.621,5.775c1.564,1.239,3.049,2.586,4.501,3.957c2.293,2.166,4.642,4.29,6.759,6.621
			c2.97,3.268,5.851,6.629,8.579,10.101c2.46,3.131,4.78,6.388,6.949,9.728c2.185,3.365,4.263,6.82,6.104,10.382
			c2.072,4.009,3.904,8.148,5.7,12.291c2.164,4.992,3.728,10.198,5.108,15.455c0.757,2.883,1.51,5.774,2.081,8.698
			c0.648,3.315,1.167,6.66,1.598,10.011c0.395,3.076,0.518,6.186,0.907,9.262c0.385,3.044,0.614,6.092,0.472,9.149
			c-0.133,2.873-0.412,5.74-0.663,8.606c-0.206,2.353-0.394,4.711-0.717,7.05c-0.338,2.446-0.755,4.887-1.267,7.302
			c-0.847,3.996-1.726,7.989-2.73,11.948c-0.642,2.534-1.442,5.037-2.334,7.496c-1.445,3.987-2.895,7.981-4.585,11.868
			c-1.403,3.227-3.028,6.375-4.784,9.426c-2.216,3.849-4.533,7.655-7.052,11.311c-2.516,3.651-5.292,7.127-8.033,10.617
			c-3.313,4.219-7.108,8.008-11.013,11.663c-2.847,2.665-5.888,5.135-8.957,7.547c-2.817,2.215-5.724,4.331-8.707,6.316
			c-2.914,1.94-5.92,3.76-8.987,5.448c-3.17,1.744-6.419,3.361-9.714,4.857c-2.928,1.329-5.923,2.543-8.966,3.577
			c-4.008,1.362-8.064,2.611-12.154,3.7c-3.537,0.942-7.144,1.629-10.735,2.359c-2.28,0.464-4.578,0.862-6.884,1.173
			c-2.002,0.271-4.022,0.438-6.04,0.545c-4.052,0.214-8.109,0.494-12.163,0.484c-3.214-0.008-6.431-0.368-9.639-0.649
			c-2.606-0.228-5.212-0.506-7.8-0.885c-2.021-0.295-4.023-0.741-6.019-1.186c-3.161-0.705-6.335-1.373-9.457-2.229
			c-3.37-0.924-6.699-2.005-10.022-3.094c-5.264-1.725-10.353-3.909-15.25-6.474c-3.983-2.087-7.9-4.336-11.664-6.794
			c-4.025-2.628-7.901-5.498-11.723-8.418c-5.127-3.918-9.747-8.419-14.16-13.11c-4.144-4.405-7.872-9.168-11.335-14.13
			c-3.429-4.911-6.601-9.974-9.389-15.288c-2.868-5.467-5.319-11.099-7.355-16.92c-1.588-4.539-2.984-9.13-3.982-13.839
			c-0.754-3.558-1.623-7.092-2.322-10.66c-0.381-1.948-0.533-3.942-0.755-5.919c-0.302-2.687-0.613-5.373-0.843-8.066
			C0.282,139.836,0.176,137.381,0,134.526z M259.555,135.092c-0.057,0-0.114-0.001-0.171-0.001c0-2.549,0.128-5.105-0.031-7.644
			c-0.22-3.52-0.54-7.043-1.032-10.534c-0.511-3.625-1.093-7.26-1.98-10.807c-1.136-4.541-2.411-9.069-3.99-13.472
			c-1.662-4.634-3.65-9.16-5.692-13.645c-1.294-2.843-2.831-5.595-4.466-8.26c-2.202-3.589-4.526-7.11-6.941-10.56
			c-2.862-4.09-6.023-7.959-9.526-11.52c-2.885-2.933-5.824-5.822-8.868-8.59c-2.357-2.143-4.846-4.157-7.398-6.067
			c-2.778-2.079-5.615-4.104-8.573-5.913c-3.711-2.27-7.497-4.444-11.385-6.389c-4.605-2.304-9.342-4.352-14.272-5.897
			c-3.394-1.063-6.761-2.23-10.2-3.121c-3.157-0.818-6.382-1.393-9.598-1.957c-3.05-0.535-6.116-1.011-9.194-1.337
			c-2.864-0.303-5.75-0.452-8.631-0.523c-2.431-0.06-4.868,0.064-7.301,0.153c-2.14,0.079-4.283,0.167-6.416,0.352
			c-2.75,0.238-5.508,0.468-8.232,0.897c-3.31,0.521-6.621,1.111-9.871,1.915c-3.862,0.956-7.7,2.05-11.474,3.306
			c-5.436,1.808-10.707,4.037-15.821,6.642c-4.526,2.305-8.967,4.754-13.145,7.64c-3.092,2.136-6.156,4.331-9.077,6.691
			c-3.239,2.617-6.355,5.392-9.419,8.214c-1.698,1.564-3.245,3.308-4.745,5.07c-2.772,3.254-5.532,6.524-8.163,9.891
			c-3.837,4.909-7.108,10.205-9.974,15.728c-1.878,3.619-3.639,7.316-5.18,11.089c-1.667,4.081-3.115,8.26-4.471,12.457
			c-0.925,2.864-1.584,5.819-2.255,8.757c-0.55,2.409-1.019,4.843-1.386,7.286c-0.384,2.559-0.653,5.138-0.884,7.717
			c-0.278,3.095-0.612,6.196-0.652,9.298c-0.047,3.717,0.155,7.439,0.319,11.156c0.092,2.077,0.238,4.159,0.519,6.217
			c0.518,3.802,0.945,7.634,1.791,11.368c1.122,4.956,2.401,9.899,4,14.719c1.466,4.421,3.303,8.738,5.242,12.979
			c1.725,3.772,3.69,7.449,5.778,11.035c1.933,3.318,4.042,6.551,6.307,9.652c2.484,3.402,5.159,6.673,7.894,9.879
			c1.957,2.293,4.09,4.447,6.254,6.55c2.269,2.205,4.555,4.419,7.036,6.373c3.822,3.012,7.707,5.971,11.767,8.645
			c3.873,2.55,7.93,4.85,12.042,7.001c6.144,3.213,12.578,5.786,19.226,7.773c3.429,1.025,6.886,1.997,10.385,2.737
			c3.804,0.805,7.662,1.372,11.512,1.929c2.673,0.387,5.368,0.68,8.063,0.837c2.956,0.173,5.924,0.165,8.887,0.188
			c1.255,0.01,2.511-0.112,3.768-0.158c0.66-0.024,1.326,0.039,1.981-0.025c2.661-0.261,5.325-0.51,7.977-0.852
			c2.647-0.342,5.292-0.725,7.915-1.209c2.708-0.5,5.414-1.052,8.077-1.748c2.582-0.674,5.134-1.486,7.653-2.37
			c3.383-1.188,6.759-2.413,10.067-3.792c2.761-1.151,5.448-2.491,8.114-3.853c2.479-1.266,4.983-2.525,7.304-4.048
			c4.114-2.701,8.143-5.54,12.12-8.442c2.274-1.659,4.44-3.484,6.538-5.364c2.163-1.938,4.219-4,6.26-6.068
			c1.809-1.833,3.636-3.665,5.27-5.649c2.387-2.898,4.635-5.912,6.893-8.914c3.539-4.706,6.509-9.774,9.249-14.97
			c2.461-4.667,4.633-9.477,6.38-14.461c1.015-2.896,1.994-5.81,2.834-8.76c0.909-3.194,1.765-6.414,2.408-9.669
			c0.765-3.87,1.396-7.775,1.866-11.691c0.401-3.336,0.514-6.709,0.707-10.068C259.616,137.623,259.555,136.356,259.555,135.092z"/>
		<path fill="#258DC8" d="M224.802,69.5c0.105-1.558,0.1-2.851,0.3-4.112c0.239-1.506,0.602-2.999,1.029-4.463
			c0.107-0.366,0.664-0.6,1.014-0.894c0.184,0.327,0.444,0.633,0.54,0.984c0.701,2.561,1.228,5.177,1.159,7.826
			c-0.048,1.829-0.541,3.645-0.818,5.469c-0.048,0.318-0.123,0.7,0.002,0.963c0.563,1.182,1.177,2.341,1.814,3.485
			c0.142,0.256,0.451,0.419,0.788,0.717c0.242-1.657,0.309-3.098,0.684-4.454c0.514-1.857,1.253-3.654,1.922-5.466
			c0.081-0.22,0.303-0.416,0.507-0.554c0.171-0.116,0.453-0.229,0.606-0.162c0.134,0.058,0.216,0.369,0.221,0.57
			c0.07,3.353,0.223,6.709,0.137,10.058c-0.04,1.539-0.382,3.129-0.906,4.58c-0.501,1.388-0.383,2.581,0.155,3.867
			c0.493,1.178,0.875,2.403,1.344,3.592c0.086,0.218,0.356,0.362,0.541,0.541c0.09-0.212,0.251-0.421,0.259-0.636
			c0.117-3.067,1.036-5.932,2.228-8.717c0.263-0.614,0.737-1.149,1.175-1.669c0.153-0.182,0.525-0.33,0.731-0.269
			c0.175,0.052,0.335,0.416,0.365,0.659c0.142,1.187,0.375,2.385,0.323,3.567c-0.111,2.492,0.028,5.028-0.972,7.415
			c-0.715,1.706-1.45,3.41-2.018,5.166c-0.229,0.707-0.135,1.567-0.013,2.329c0.188,1.175,0.523,2.327,0.809,3.485
			c0.035,0.141,0.178,0.378,0.235,0.368c0.166-0.03,0.39-0.125,0.456-0.261c0.247-0.512,0.361-1.101,0.667-1.568
			c1.169-1.781,2.345-3.562,3.622-5.265c0.549-0.732,1.317-1.32,2.061-1.873c0.245-0.182,0.794-0.171,1.073-0.014
			c0.18,0.101,0.234,0.659,0.15,0.958c-0.59,2.104-1.199,4.205-1.861,6.287c-0.948,2.98-2.297,5.772-4.28,8.203
			c-0.777,0.953-0.472,1.938-0.389,2.924c0.115,1.359,0.318,2.71,0.506,4.062c0.026,0.187,0.18,0.357,0.274,0.535
			c0.144-0.14,0.357-0.253,0.423-0.423c0.918-2.372,1.927-4.718,3.615-6.64c1.366-1.555,2.939-2.93,4.441-4.363
			c0.169-0.161,0.465-0.229,0.712-0.26c0.833-0.106,1.199,0.325,0.905,1.123c-0.797,2.163-1.599,4.326-2.456,6.465
			c-1.293,3.225-3.068,6.157-5.467,8.693c-0.451,0.477-0.867,0.986-1.309,1.471c-0.532,0.585-0.843,1.206-0.828,2.058
			c0.027,1.599-0.099,3.201-0.138,4.802c-0.008,0.335,0.083,0.673,0.146,1.149c0.262-0.202,0.389-0.251,0.429-0.339
			c1.381-3.028,3.273-5.692,5.75-7.912c1.229-1.102,2.529-2.131,3.853-3.118c0.436-0.325,1.035-0.507,1.584-0.59
			c0.922-0.139,1.36,0.494,0.939,1.307c-1.164,2.25-2.364,4.483-3.535,6.729c-1.425,2.734-3.375,5.071-5.558,7.211
			c-1.179,1.156-2.494,2.173-3.725,3.278c-0.243,0.218-0.489,0.531-0.549,0.836c-0.224,1.141-0.39,2.294-0.533,3.448
			c-0.029,0.238,0.135,0.5,0.21,0.751c0.219-0.14,0.489-0.237,0.65-0.427c2.007-2.363,4.163-4.575,6.663-6.416
			c1.37-1.009,2.836-1.89,4.26-2.827c0.071-0.047,0.154-0.119,0.227-0.114c0.537,0.031,1.073,0.078,1.61,0.12
			c-0.078,0.456-0.043,0.974-0.255,1.355c-0.746,1.344-1.563,2.65-2.382,3.953c-0.575,0.916-1.188,1.809-1.799,2.702
			c-1.464,2.139-3.511,3.627-5.647,5.009c-1.435,0.929-2.894,1.824-4.305,2.788c-0.351,0.24-0.685,0.649-0.813,1.048
			c-0.43,1.346-0.763,2.722-1.214,4.384c0.479-0.295,0.815-0.432,1.061-0.664c1.547-1.462,2.906-3.117,4.76-4.257
			c2.061-1.267,4.034-2.679,6.085-3.964c0.841-0.527,1.765-0.94,2.692-1.297c0.293-0.113,0.755,0.063,1.07,0.235
			c0.126,0.069,0.176,0.553,0.067,0.729c-0.651,1.05-1.31,2.103-2.061,3.082c-0.884,1.152-1.85,2.242-2.812,3.332
			c-0.337,0.381-0.746,0.707-1.157,1.012c-1.508,1.121-2.992,2.281-4.561,3.311c-1.041,0.683-2.215,1.164-3.324,1.746
			c-0.931,0.488-1.91,0.914-2.759,1.519c-0.465,0.331-0.782,0.943-1.032,1.49c-0.529,1.161-0.971,2.362-1.55,3.798
			c0.439-0.164,0.727-0.2,0.92-0.355c1.333-1.07,2.629-2.187,3.972-3.245c1.023-0.805,2.027-1.676,3.164-2.285
			c2.107-1.129,4.29-2.124,6.475-3.098c0.687-0.306,1.478-0.427,2.234-0.507c0.301-0.032,0.713,0.213,0.928,0.46
			c0.106,0.122-0.035,0.615-0.211,0.803c-2.661,2.831-5.136,5.89-8.424,8.026c-1.633,1.061-3.532,1.713-5.316,2.539
			c-1.809,0.837-3.635,1.639-5.429,2.507c-0.334,0.161-0.622,0.523-0.809,0.86c-0.537,0.967-1.022,1.964-1.501,2.961
			c-0.122,0.253-0.146,0.553-0.274,1.071c1.072-0.695,1.893-1.291,2.771-1.784c3.159-1.776,6.43-3.301,9.954-4.22
			c1.292-0.337,2.591-0.645,3.887-0.964c0.138-0.034,0.294-0.102,0.417-0.067c0.58,0.161,1.152,0.353,1.727,0.533
			c-0.195,0.444-0.299,0.967-0.603,1.317c-0.651,0.749-1.367,1.454-2.126,2.093c-1.393,1.173-2.757,2.414-4.287,3.382
			c-1.099,0.695-2.428,1.061-3.692,1.451c-1.948,0.602-3.93,1.095-5.895,1.641c-1.339,0.371-2.671,0.771-4.016,1.122
			c-0.759,0.198-1.29,0.593-1.692,1.289c-0.641,1.107-1.4,2.145-2.073,3.235c-0.158,0.255-0.17,0.601-0.249,0.905
			c0.316-0.068,0.66-0.078,0.944-0.213c1.336-0.636,2.641-1.335,3.983-1.958c2.81-1.303,5.786-2.014,8.848-2.4
			c1.748-0.221,3.49-0.514,5.244-0.65c0.532-0.041,1.097,0.333,1.646,0.518c-0.286,0.46-0.473,1.054-0.878,1.355
			c-1.025,0.762-2.118,1.444-3.236,2.064c-1.942,1.077-3.847,2.282-5.908,3.063c-2.162,0.819-4.475,1.264-6.747,1.761
			c-2.219,0.485-4.464,0.85-6.705,1.226c-1.29,0.216-1.949,1.189-2.706,2.073c-1.13,1.319-2.279,2.621-3.406,3.942
			c-0.131,0.154-0.176,0.381-0.26,0.574c0.221,0.04,0.471,0.168,0.659,0.106c2.539-0.832,5.095-1.623,7.595-2.561
			c2.867-1.076,5.841-1.693,8.83-2.239c1.674-0.306,3.392-0.37,5.09-0.536c0.199-0.019,0.45-0.071,0.594,0.021
			c0.479,0.309,0.921,0.677,1.377,1.022c-0.319,0.408-0.555,0.954-0.97,1.202c-2.099,1.258-4.187,2.561-6.394,3.602
			c-1.445,0.682-3.091,0.933-4.64,1.399c-2.234,0.673-4.529,0.765-6.841,0.912c-2.947,0.186-5.876,0.654-8.808,1.039
			c-0.34,0.045-0.693,0.289-0.962,0.528c-1.815,1.613-3.617,3.242-5.403,4.886c-0.252,0.232-0.399,0.578-0.594,0.872
			c0.062,0.059,0.124,0.118,0.186,0.177c2.019-0.421,4.032-0.875,6.059-1.255c1.925-0.361,3.855-0.764,5.801-0.933
			c2.674-0.232,5.364-0.324,8.049-0.352c1.562-0.016,3.128,0.196,4.689,0.342c0.298,0.028,0.593,0.201,0.867,0.349
			c0.767,0.415,0.849,0.997,0.105,1.424c-1.251,0.717-2.521,1.457-3.873,1.931c-2.895,1.016-5.852,1.854-8.774,2.794
			c-1.822,0.586-3.668,0.439-5.522,0.285c-0.966-0.08-1.934-0.14-2.899-0.236c-2.151-0.216-4.297-0.54-6.453-0.636
			c-1.022-0.045-2.056,0.382-3.095,0.506c-2.042,0.244-3.429,1.696-5.076,2.668c-0.49,0.289-0.977,0.591-1.427,0.937
			c-0.149,0.114-0.177,0.385-0.261,0.585c0.193,0.077,0.391,0.232,0.577,0.219c1.988-0.145,3.974-0.328,5.962-0.475
			c0.629-0.047,1.263-0.035,1.894-0.025c3.296,0.052,6.602-0.029,9.884,0.214c2.712,0.201,5.396,0.785,8.091,1.209
			c0.163,0.026,0.367,0.099,0.457,0.22c0.254,0.341,0.576,0.701,0.635,1.089c0.031,0.21-0.38,0.633-0.664,0.718
			c-1.684,0.503-3.372,1.023-5.093,1.371c-2.336,0.473-4.691,0.932-7.06,1.144c-2.264,0.202-4.56,0.149-6.838,0.077
			c-1.53-0.049-3.067-0.249-4.574-0.525c-1.365-0.249-2.698-0.68-4.04-1.052c-2.157-0.598-4.34-0.569-6.534-0.297
			c-0.219,0.027-0.431,0.143-0.635,0.239c-2.063,0.974-4.124,1.95-6.182,2.933c-0.141,0.067-0.252,0.196-0.529,0.418
			c0.355,0.079,0.551,0.158,0.747,0.16c0.948,0.014,1.896-0.009,2.844,0.011c2.319,0.048,4.65-0.014,6.954,0.206
			c2.51,0.24,5.01,0.668,7.486,1.155c4.344,0.855,8.467,2.445,12.594,4.003c0.553,0.209,1.069,0.521,1.595,0.797
			c0.062,0.033,0.083,0.142,0.253,0.453c-0.792,0.168-1.497,0.358-2.215,0.462c-2.025,0.292-4.053,0.562-6.083,0.814
			c-0.876,0.109-1.76,0.196-2.642,0.219c-3.008,0.078-6.017,0.188-9.025,0.16c-2.261-0.021-4.416-0.709-6.568-1.362
			c-3.835-1.164-7.666-2.346-11.531-3.4c-2.375-0.647-4.727-0.334-7.075,0.877c0.215,0.159,0.383,0.373,0.591,0.424
			c5.65,1.403,11.092,3.409,16.491,5.563c2.92,1.165,5.745,2.498,8.402,4.164c0.753,0.472,1.405,1.14,2.015,1.799
			c0.652,0.706,0.568,0.987-0.238,1.448c-2.801,1.603-5.656,3.077-8.755,4.053c-1.569,0.494-3.088,1.154-4.609,1.789
			c-0.863,0.361-1.605,0.277-2.27-0.365c-2.276-2.194-4.869-3.97-7.635-5.449c-2.408-1.288-4.93-2.373-7.439-3.462
			c-2.161-0.938-4.357-1.804-6.571-2.613c-3.048-1.114-6.168-1.973-9.395-2.417c-1.492-0.205-2.964-0.58-4.46-0.721
			c-3.17-0.298-6.327-0.814-9.539-0.191c-2.284,0.443-4.621,0.606-6.93,0.923c-3.929,0.541-7.754,1.515-11.457,2.926
			c-2.392,0.911-4.751,1.909-7.104,2.918c-4.254,1.825-8.382,3.882-12.013,6.808c-0.533,0.43-1.099,0.845-1.534,1.364
			c-0.624,0.743-1.38,0.812-2.167,0.523c-3.077-1.129-6.167-2.231-9.188-3.495c-1.569-0.656-3.014-1.616-4.499-2.465
			c-0.68-0.389-0.702-0.761-0.193-1.371c1.145-1.37,2.634-2.307,4.2-3.053c3.004-1.431,6.013-2.898,9.137-4.025
			c4.656-1.681,9.413-3.078,14.124-4.608c0.201-0.065,0.361-0.257,0.539-0.389c-0.168-0.112-0.322-0.267-0.507-0.328
			c-1.322-0.435-2.627-1.104-4.061-0.823c-2.423,0.475-4.848,0.973-7.231,1.611c-3.049,0.817-6.071,1.742-9.08,2.697
			c-2.734,0.867-5.542,1.096-8.366,0.989c-2.874-0.109-5.744-0.387-8.609-0.667c-2.348-0.229-4.686-0.561-7.025-0.874
			c-0.208-0.028-0.391-0.247-0.585-0.378c0.131-0.161,0.229-0.407,0.397-0.47c3.088-1.164,6.151-2.408,9.29-3.418
			c2.398-0.772,4.884-1.287,7.351-1.826c1.189-0.26,2.421-0.399,3.638-0.443c3.035-0.109,6.074-0.136,9.111-0.188
			c0.878-0.015,1.756,0.008,2.634-0.013c0.203-0.005,0.403-0.118,0.835-0.253c-0.425-0.287-0.648-0.479-0.904-0.603
			c-1.95-0.943-3.905-1.873-5.861-2.803c-0.204-0.097-0.422-0.237-0.633-0.237c-1.961,0.001-3.941-0.137-5.877,0.096
			c-1.82,0.218-3.575,0.925-5.388,1.258c-3.491,0.641-7.021,0.998-10.562,0.497c-3.6-0.51-7.188-1.113-10.769-1.745
			c-0.913-0.161-1.795-0.548-2.664-0.897c-0.562-0.226-0.696-0.989-0.153-1.33c0.666-0.419,1.471-0.721,2.251-0.836
			c2.784-0.411,5.575-0.854,8.379-1.034c3.229-0.207,6.476-0.218,9.713-0.178c1.903,0.023,3.802,0.314,5.703,0.477
			c0.285,0.024,0.596,0.073,0.855-0.012c0.235-0.077,0.5-0.285,0.589-0.502c0.058-0.14-0.124-0.479-0.291-0.594
			c-1.219-0.842-2.386-1.814-3.717-2.421c-1.247-0.569-2.658-0.906-4.027-1.043c-1.688-0.169-3.41-0.085-5.111,0
			c-1.331,0.067-2.652,0.333-3.982,0.455c-1.108,0.102-2.229,0.074-3.335,0.192c-3.06,0.328-5.845-0.74-8.666-1.636
			c-1.817-0.577-3.655-1.103-5.427-1.795c-1.097-0.429-2.117-1.082-3.119-1.718c-0.628-0.398-0.598-0.869,0.026-1.281
			c0.348-0.23,0.775-0.432,1.18-0.464c1.992-0.158,3.993-0.399,5.982-0.337c2.73,0.086,5.466,0.314,8.174,0.673
			c2.672,0.354,5.311,0.951,7.966,1.433c1.051,0.191,2.107,0.357,3.16,0.534c0.061-0.111,0.123-0.221,0.184-0.332
			c-0.507-0.48-1.008-0.967-1.523-1.439c-1.243-1.139-2.569-2.2-3.717-3.428c-0.904-0.967-2.006-1.25-3.194-1.408
			c-1.973-0.263-3.949-0.515-5.931-0.7c-4.28-0.398-8.594-0.637-12.666-2.16c-1.396-0.522-2.655-1.408-3.98-2.12
			c-0.981-0.528-1.978-1.028-2.95-1.572c-0.393-0.22-0.772-0.489-1.099-0.797c-0.645-0.607-0.545-1.259,0.326-1.515
			c0.776-0.228,1.629-0.315,2.441-0.281c3.318,0.139,6.506,1.056,9.699,1.847c2.089,0.518,4.08,1.43,6.125,2.136
			c1.209,0.417,2.437,0.776,3.657,1.159c0.46,0.145,0.914,0.318,1.384,0.415c0.306,0.063,0.635,0.012,0.954,0.012
			c0.009-0.084,0.019-0.169,0.028-0.253c-0.678-0.765-1.368-1.52-2.03-2.299c-0.775-0.912-1.52-1.849-2.287-2.767
			c-0.54-0.646-1.138-1.172-2.028-1.33c-2.713-0.483-5.423-0.985-8.125-1.528c-4.129-0.831-8.126-2.021-11.637-4.474
			c-1.398-0.977-2.86-1.868-4.222-2.891c-0.708-0.532-0.583-1.098,0.286-1.218c1.051-0.145,2.159-0.139,3.21,0.017
			c2.5,0.373,4.997,0.804,7.465,1.349c1.296,0.287,2.57,0.772,3.78,1.33c1.985,0.916,3.905,1.971,5.863,2.946
			c0.256,0.128,0.574,0.13,0.936,0.206c-0.015-0.232,0.015-0.361-0.035-0.438c-0.939-1.428-1.845-2.882-2.858-4.257
			c-0.362-0.492-0.929-0.97-1.499-1.151c-2.74-0.869-5.509-1.648-8.275-2.43c-1.448-0.41-2.968-0.623-4.351-1.182
			c-1.243-0.502-2.409-1.268-3.491-2.077c-1.481-1.108-2.882-2.331-4.249-3.58c-0.49-0.447-0.808-1.097-1.138-1.691
			c-0.07-0.127,0.104-0.559,0.242-0.601c0.558-0.171,1.187-0.436,1.717-0.323c4.705,1.003,9.24,2.506,13.415,4.949
			c1.173,0.687,2.285,1.476,3.438,2.199c0.171,0.107,0.41,0.105,0.618,0.154c-0.019-0.227,0.026-0.487-0.069-0.676
			c-0.422-0.838-1.001-1.615-1.305-2.49c-0.412-1.184-1.283-1.739-2.324-2.216c-3.317-1.52-6.673-2.968-9.91-4.644
			c-1.918-0.993-3.559-2.438-4.969-4.137c-1.005-1.211-2.238-2.23-3.302-3.395c-0.371-0.406-0.88-1.156-0.732-1.468
			c0.293-0.618,1.059-0.378,1.697-0.268c2.633,0.454,4.899,1.772,7.219,2.975c3.209,1.664,5.654,4.306,8.432,6.522
			c0.211,0.169,0.531,0.202,0.801,0.298c-0.024-0.264,0.006-0.548-0.083-0.789c-0.326-0.882-0.748-1.732-1.028-2.627
			c-0.372-1.188-1.085-2.036-2.187-2.585c-1.094-0.545-2.149-1.192-3.284-1.627c-1.584-0.607-2.846-1.655-4.153-2.665
			c-1.418-1.096-2.99-2.034-4.242-3.293c-1.622-1.632-3.013-3.497-4.455-5.301c-0.264-0.331-0.368-0.84-0.413-1.281
			c-0.052-0.513,0.768-0.926,1.3-0.626c2.036,1.148,4.071,2.301,6.064,3.522c1.31,0.802,2.623,1.632,3.798,2.614
			c1.448,1.21,2.747,2.597,4.128,3.889c0.248,0.232,0.581,0.373,0.874,0.556c0.065-0.069,0.13-0.137,0.195-0.206
			c-0.406-1.445-0.781-2.899-1.239-4.328c-0.108-0.337-0.447-0.654-0.759-0.862c-2.183-1.454-4.423-2.827-6.575-4.325
			c-2.182-1.519-3.898-3.493-5.237-5.801c-0.901-1.553-1.897-3.051-2.782-4.613c-0.241-0.424-0.232-0.99-0.338-1.491
			c0.637,0.005,1.397-0.213,1.889,0.057c1.391,0.763,2.764,1.618,3.977,2.635c2.051,1.72,4.001,3.565,5.935,5.418
			c0.65,0.623,1.12,1.433,1.68,2.152c0.177,0.227,0.377,0.435,0.767,0.568c0-0.318,0.04-0.641-0.007-0.951
			c-0.188-1.236-0.342-2.482-0.637-3.693c-0.124-0.509-0.486-1.031-0.882-1.389c-1.332-1.202-2.84-2.228-4.073-3.519
			c-1.491-1.562-2.891-3.243-4.108-5.024c-1.198-1.753-2.127-3.69-3.155-5.557c-0.579-1.051-1.156-2.107-1.656-3.196
			c-0.137-0.298-0.13-0.932,0.046-1.045c0.356-0.229,0.972-0.41,1.307-0.249c0.965,0.462,1.883,1.051,2.744,1.691
			c0.914,0.679,1.779,1.435,2.601,2.225c2.393,2.3,4.264,4.973,5.617,8.011c0.117,0.263,0.433,0.437,0.657,0.652
			c0.044-0.298,0.126-0.596,0.125-0.894c-0.006-1.664-0.088-3.33-0.031-4.992c0.033-0.972-0.284-1.661-0.962-2.344
			c-2.774-2.797-5.109-5.941-6.73-9.533c-1.099-2.435-1.928-4.994-2.836-7.512c-0.104-0.287-0.058-0.831,0.131-0.972
			c0.264-0.197,0.843-0.3,1.084-0.139c0.917,0.614,1.829,1.276,2.6,2.06c0.997,1.013,1.96,2.091,2.754,3.265
			c1.4,2.07,2.68,4.222,3.292,6.694c0.055,0.222,0.331,0.39,0.505,0.583c0.104-0.227,0.271-0.446,0.302-0.683
			c0.241-1.833,0.448-3.67,0.681-5.504c0.083-0.658-0.046-1.221-0.483-1.747c-2.629-3.167-4.276-6.825-5.359-10.766
			c-0.399-1.453-0.878-2.885-1.257-4.343c-0.074-0.286,0.044-0.778,0.255-0.94c0.218-0.168,0.791-0.201,0.975-0.034
			c1.009,0.913,2.026,1.839,2.889,2.885c1.526,1.85,2.901,3.812,3.573,6.173c0.055,0.193,0.332,0.323,0.507,0.482
			c0.14-0.192,0.353-0.365,0.407-0.578c0.356-1.402,0.709-2.807,0.989-4.225c0.069-0.349-0.087-0.769-0.22-1.126
			c-0.814-2.187-1.733-4.338-2.447-6.557c-0.395-1.228-0.601-2.558-0.639-3.85c-0.062-2.127,0.07-4.261,0.157-6.39
			c0.011-0.27,0.25-0.53,0.383-0.794c0.278,0.152,0.634,0.241,0.822,0.468c1.397,1.688,2.075,3.716,2.566,5.801
			c0.438,1.857,0.875,3.725,0.726,5.666c-0.013,0.174,0.168,0.363,0.259,0.544c0.142-0.167,0.343-0.311,0.417-0.504
			c0.778-2.014,1.547-4.033,2.285-6.062c0.083-0.229,0.022-0.557-0.076-0.798c-0.951-2.346-1.502-4.777-1.533-7.311
			c-0.026-2.097-0.023-4.195,0.003-6.292c0.012-0.969,0.11-1.937,0.166-2.906c0.032-0.548,0.322-0.654,0.738-0.379
			c0.253,0.168,0.532,0.397,0.642,0.664c0.929,2.262,1.92,4.501,2.103,6.999c0.081,1.096,0.353,2.179,0.576,3.49
			c0.284-0.277,0.486-0.4,0.581-0.579c0.679-1.285,1.35-2.574,1.988-3.88c0.116-0.238,0.15-0.579,0.08-0.834
			c-0.693-2.537-1.322-5.074-0.861-7.742c0.368-2.127,0.696-4.26,1.07-6.386c0.132-0.749,0.659-0.935,1.122-0.331
			c0.434,0.566,0.793,1.287,0.904,1.984c0.318,1.991,0.498,4.003,0.719,6.009c0.038,0.341-0.014,0.692,0.023,1.032
			c0.015,0.136,0.142,0.34,0.251,0.363c0.118,0.026,0.329-0.085,0.405-0.2c0.935-1.398,1.869-2.798,2.758-4.224
			c0.139-0.223,0.103-0.589,0.071-0.881c-0.184-1.697-0.647-3.409-0.534-5.083c0.196-2.883,0.717-5.748,1.179-8.607
			c0.075-0.464,0.548-0.863,0.837-1.293c0.361,0.368,0.873,0.673,1.057,1.115c0.966,2.321,1.487,4.729,1.066,7.261
			c-0.126,0.756-0.304,1.504-0.439,2.259c-0.038,0.211-0.006,0.435-0.006,0.652c0.083,0.028,0.165,0.055,0.248,0.083
			c0.536-0.639,1.073-1.277,1.607-1.919c0.547-0.657,1.03-1.382,1.65-1.96c0.672-0.626,0.571-1.353,0.434-2.065
			c-0.306-1.591-0.398-3.176,0.077-4.731c0.821-2.692,1.477-5.461,3.257-7.752c0.237-0.305,0.508-0.583,0.907-1.037
			c0.572,4.003-0.049,7.642-1.279,11.507c0.458-0.239,0.768-0.324,0.971-0.519c1.011-0.973,2.01-1.96,2.976-2.977
			c0.211-0.222,0.376-0.588,0.382-0.891c0.095-4.634,1.884-8.632,4.567-12.3c0.067-0.092,0.139-0.187,0.227-0.258
			c0.309-0.247,0.626-0.484,0.939-0.724c0.111,0.393,0.29,0.781,0.323,1.18c0.232,2.885-0.668,5.511-1.889,8.061
			c-0.084,0.175-0.044,0.408-0.062,0.614c0.206-0.032,0.464,0.004,0.611-0.106c1.733-1.297,3.448-2.617,5.169-3.929
			c0.58-0.443,0.683-0.965,0.697-1.732c0.051-2.674,0.572-5.283,2.076-7.566c0.803-1.219,1.75-2.343,2.815-3.434
			c0.271,1.81,0.454,3.562-0.163,5.242c-0.596,1.623-1.34,3.191-2.074,4.913c0.321-0.11,0.64-0.16,0.895-0.314
			c1.659-1,3.251-2.13,4.974-3c1.146-0.579,1.292-1.575,1.587-2.549c0.937-3.098,2.652-5.661,5.158-7.704
			c0.266-0.217,0.48-0.497,0.746-0.714c0.236-0.192,0.51-0.338,0.929-0.608c0,0.699,0.141,1.29-0.024,1.777
			c-0.829,2.454-1.991,4.716-4.043,6.414c-0.236,0.195-0.365,0.519-0.544,0.784c0.064,0.092,0.127,0.183,0.191,0.275
			c0.614-0.276,1.229-0.55,1.841-0.83c2.123-0.97,4.259-1.914,6.36-2.929c0.815-0.394,1.618-0.87,2.313-1.446
			c1.939-1.606,4.144-2.324,6.641-2.287c2.025,0.03,4.051,0.006,6.076,0.006c0.039,0.107,0.079,0.213,0.118,0.32
			c-0.111,0.196-0.177,0.449-0.34,0.578c-1.763,1.394-3.484,2.878-5.679,3.558c-0.942,0.291-1.94,0.458-2.925,0.541
			c-2.048,0.171-4.103,0.242-6.155,0.371c-0.336,0.021-0.703,0.056-0.996,0.203C90.11,32.145,88.054,33.211,86,34.28
			c-0.194,0.101-0.35,0.278-0.539,0.67c0.295,0.047,0.61,0.186,0.882,0.128c2.351-0.502,4.718-0.936,7.124-0.724
			c1.279,0.113,2.533,0.511,3.798,0.781c-0.001,0.09-0.003,0.179-0.004,0.269c-0.117,0.096-0.222,0.249-0.354,0.279
			c-2.44,0.541-4.869,1.161-7.332,1.567c-2.018,0.332-3.942-0.353-5.842-0.99c-0.312-0.105-0.776-0.14-1.026,0.019
			c-1.924,1.219-3.813,2.493-5.71,3.755c-0.062,0.041-0.086,0.139-0.174,0.292c0.607,0.572,1.303,0.227,1.89,0.109
			c1.794-0.36,3.578-0.728,5.424-0.593c2.011,0.147,3.897,0.68,5.886,1.803c-0.525,0.279-0.835,0.544-1.183,0.612
			c-1.392,0.269-2.788,0.574-4.196,0.681c-1.527,0.116-3.073,0.096-4.603,0.008c-1.76-0.102-3.511-0.361-5.27-0.51
			c-0.355-0.03-0.817,0.006-1.076,0.208c-1.863,1.456-3.688,2.961-5.52,4.457c-0.105,0.086-0.171,0.219-0.435,0.569
			c0.477-0.033,0.772,0.029,0.976-0.08c2.639-1.412,5.487-1.71,8.398-1.514c1.032,0.07,2.05,0.408,3.063,0.665
			c0.706,0.179,0.477,0.611,0.065,0.804c-1.132,0.529-2.27,1.112-3.471,1.409c-2.121,0.525-4.281,0.925-6.444,1.241
			c-1.575,0.231-3.186,0.209-4.773,0.373c-0.473,0.049-1.03,0.23-1.359,0.547c-1.194,1.152-2.316,2.38-3.444,3.599
			c-0.159,0.172-0.195,0.456-0.366,0.886c1.279-0.391,2.313-0.809,3.388-1.015c2.536-0.486,5.086-0.906,7.643-1.27
			c0.592-0.085,1.241,0.121,1.845,0.27c0.238,0.059,0.51,0.29,0.602,0.511c0.048,0.115-0.234,0.41-0.414,0.571
			c-1.535,1.367-3.456,1.966-5.355,2.547c-1.737,0.531-3.51,1.021-5.303,1.266c-1.296,0.178-2.664,0.017-3.973-0.174
			c-0.614-0.089-1.027-0.083-1.401,0.402c-1.146,1.49-2.301,2.973-3.433,4.473c-0.11,0.146-0.082,0.395-0.118,0.596
			c0.204-0.001,0.454,0.076,0.606-0.013c2.007-1.178,4.228-1.725,6.483-2.073c2.078-0.321,4.186-0.457,6.285-0.621
			c0.272-0.021,0.568,0.276,0.854,0.426c-0.176,0.257-0.294,0.608-0.536,0.755c-2.962,1.796-6.091,3.264-9.407,4.247
			c-1.923,0.57-3.914,1.069-5.976,0.611c-0.514-0.114-0.919,0.067-1.212,0.573c-1.086,1.875-2.212,3.727-3.307,5.598
			c-0.091,0.155-0.059,0.383-0.084,0.577c0.209-0.017,0.444,0.022,0.624-0.061c1.266-0.581,2.496-1.247,3.783-1.771
			c2.127-0.866,4.358-1.29,6.661-1.33c0.481-0.008,0.959-0.113,1.44-0.124c0.166-0.004,0.372,0.108,0.485,0.234
			c0.047,0.052-0.063,0.34-0.174,0.421c-1.517,1.106-2.995,2.28-4.587,3.268c-2.344,1.455-5.024,1.898-7.71,2.266
			c-0.59,0.081-1.209,0.149-1.744,0.385c-0.455,0.201-0.965,0.554-1.178,0.978c-0.856,1.705-1.607,3.464-2.509,5.452
			c0.402-0.082,0.682-0.068,0.874-0.19c2.35-1.492,4.866-2.637,7.546-3.351c1.503-0.401,3.077-0.539,4.622-0.78
			c0.121-0.019,0.26,0.083,0.665,0.225c-0.608,0.546-1.038,1.056-1.576,1.395c-3.023,1.906-6.135,3.641-9.543,4.788
			c-1.187,0.399-2.383,0.792-3.517,1.314c-0.354,0.163-0.598,0.712-0.753,1.136c-0.566,1.538-1.073,3.097-1.602,4.649
			c0.061,0.072,0.122,0.145,0.184,0.217c0.304-0.115,0.669-0.157,0.904-0.354c3.052-2.561,6.489-4.439,10.21-5.818
			c0.319-0.118,0.658-0.183,0.99-0.263c0.721-0.175,0.721-0.173,1.284,0.716c-1.738,1.744-3.468,3.559-5.299,5.266
			c-0.509,0.474-1.307,0.655-1.991,0.921c-2.218,0.865-4.279,1.989-6.238,3.358c-1.273,0.889-1.755,2.091-2.036,3.484
			c-0.202,1.003-0.419,2.004-0.606,3.01c-0.037,0.198,0.037,0.416,0.06,0.625c0.228-0.077,0.509-0.094,0.674-0.241
			c1.339-1.188,2.641-2.419,3.989-3.596c0.511-0.447,1.071-0.882,1.683-1.161c2.049-0.934,4.126-1.808,6.209-2.666
			c0.257-0.106,0.612,0.029,0.922,0.053c-0.071,0.303-0.048,0.688-0.229,0.897c-1.419,1.643-2.876,3.252-4.323,4.87
			c-1.401,1.566-3.303,2.409-5.027,3.517c-1.725,1.109-3.466,2.226-4.671,3.954c-0.188,0.269-0.355,0.596-0.401,0.914
			c-0.192,1.322-0.343,2.651-0.484,3.979c-0.023,0.22,0.082,0.454,0.174,0.907c0.38-0.44,0.655-0.684,0.84-0.982
			c1.997-3.212,4.755-5.592,8.054-7.377c0.851-0.461,1.729-0.874,2.6-1.296c0.176-0.085,0.393-0.189,0.566-0.155
			c0.367,0.073,0.843,0.135,1.033,0.385c0.144,0.191,0.012,0.725-0.164,1c-0.614,0.957-1.227,1.93-1.974,2.781
			c-1.418,1.616-2.59,3.47-4.501,4.627c-1.215,0.736-2.412,1.526-3.514,2.419c-1.034,0.838-1.976,1.803-2.866,2.796
			c-0.302,0.337-0.432,0.924-0.448,1.404c-0.054,1.584-0.02,3.17-0.02,4.98c0.3-0.225,0.659-0.382,0.849-0.657
			c1.243-1.792,2.562-3.526,4.232-4.936c1.821-1.538,3.718-2.986,5.58-4.476c0.245-0.196,0.451-0.474,0.727-0.59
			c0.277-0.116,0.793-0.208,0.894-0.075c0.175,0.231,0.258,0.723,0.125,0.967c-0.757,1.392-1.497,2.808-2.419,4.09
			c-1.044,1.452-2.227,2.812-3.438,4.131c-0.728,0.793-1.678,1.38-2.432,2.153c-1.23,1.26-2.513,2.506-3.506,3.942
			c-0.428,0.619-0.262,1.702-0.237,2.57c0.029,0.992,0.19,1.981,0.32,2.968c0.046,0.349,0.167,0.689,0.299,1.216
			c0.275-0.291,0.474-0.416,0.55-0.594c1.385-3.214,3.714-5.736,6.088-8.205c1.279-1.33,2.713-2.512,4.11-3.723
			c0.188-0.163,0.569-0.103,0.861-0.147c0.018,0.267,0.132,0.573,0.041,0.796c-0.929,2.27-1.833,4.554-2.858,6.78
			c-1.132,2.458-2.705,4.609-4.659,6.513c-1.131,1.102-2.064,2.416-3.012,3.689c-0.214,0.287-0.228,0.827-0.148,1.211
			c0.405,1.948,0.86,3.886,1.331,5.819c0.055,0.227,0.319,0.404,0.487,0.604c0.147-0.182,0.37-0.343,0.428-0.551
			c0.946-3.4,2.812-6.357,4.626-9.312c0.945-1.54,2.263-2.857,3.46-4.233c0.227-0.261,0.678-0.328,1.025-0.485
			c0.097,0.335,0.342,0.709,0.267,1c-0.491,1.894-0.975,3.796-1.607,5.645c-1.026,3.003-3.089,5.437-4.646,8.151
			c-0.766,1.336-1.569,2.65-2.336,3.985c-0.106,0.184-0.201,0.464-0.139,0.643c0.603,1.719,1.24,3.427,1.873,5.136
			c0.026,0.071,0.108,0.122,0.357,0.391c0.721-2.138,1.274-4.192,2.107-6.126c0.84-1.951,1.906-3.811,2.967-5.657
			c1.07-1.863,2.254-3.66,3.388-5.485c0.125,0.026,0.249,0.052,0.374,0.078c0.084,0.383,0.304,0.795,0.23,1.145
			c-0.693,3.25-1.229,6.551-2.565,9.622c-0.848,1.952-1.861,3.831-2.735,5.772c-0.714,1.585-1.349,3.206-1.973,4.829
			c-0.094,0.245,0.001,0.618,0.121,0.88c0.632,1.376,1.295,2.739,1.963,4.098c0.087,0.178,0.261,0.313,0.395,0.468
			c0.148-0.181,0.38-0.341,0.43-0.545c0.335-1.38,0.609-2.774,0.943-4.154c1.164-4.811,2.471-9.565,5.801-13.439
			c0.158-0.184,0.425-0.275,0.641-0.409c0.098,0.248,0.296,0.504,0.276,0.743c-0.069,0.849-0.212,1.692-0.327,2.537
			c-0.262,1.944-0.368,3.925-0.829,5.82c-0.482,1.981-1.28,3.889-1.989,5.812c-0.886,2.404-1.831,4.787-2.722,7.19
			c-0.096,0.259-0.107,0.651,0.024,0.876c0.959,1.652,1.96,3.28,2.962,4.906c0.088,0.143,0.278,0.224,0.533,0.419
			c0.101-1.203,0.247-2.265,0.269-3.33c0.065-3.062,0.349-6.101,1.227-9.036c0.873-2.917,1.894-5.79,2.907-8.663
			c0.192-0.544,0.587-1.052,0.995-1.473c0.433-0.448,0.917-0.251,0.915,0.371c-0.006,1.889-0.064,3.778-0.13,5.667
			c-0.029,0.826-0.21,1.652-0.179,2.473c0.146,3.881-1.172,7.521-1.795,11.274c-0.363,2.186-0.648,4.384-0.983,6.575
			c-0.154,1.005,0.452,1.661,1.005,2.357c0.79,0.995,1.565,2.002,2.347,3.004c0.087-0.014,0.174-0.029,0.262-0.043
			c0.05-0.3,0.15-0.601,0.141-0.898c-0.02-0.654-0.123-1.305-0.144-1.959c-0.071-2.204-0.097-4.409-0.183-6.612
			c-0.116-2.974,0.326-5.883,0.971-8.769c0.396-1.773,0.653-3.608,1.72-5.144c0.33-0.475,0.904-1.139,1.328-1.112
			c0.761,0.048,0.765,0.92,0.831,1.574c0.286,2.832,0.68,5.659,0.813,8.499c0.081,1.72-0.199,3.463-0.399,5.187
			c-0.187,1.608-0.542,3.196-0.718,4.804c-0.288,2.632-0.533,5.272-0.695,7.914c-0.032,0.516,0.273,1.175,0.637,1.57
			c1.281,1.391,2.649,2.702,3.999,4.028c0.239,0.235,0.549,0.398,1.031,0.739c-0.022-0.447,0.031-0.733-0.057-0.965
			c-1.034-2.721-1.423-5.563-1.516-8.444c-0.107-3.322-0.204-6.649-0.154-9.971c0.034-2.241,0.171-4.513,1.268-6.565
			c0.182-0.34,0.526-0.594,0.795-0.888c0.286,0.284,0.709,0.517,0.836,0.86c0.837,2.266,1.548,4.547,1.978,6.96
			c0.857,4.802,0.654,9.627,0.826,14.449c0.098,2.73,0.41,5.453,0.686,8.173c0.036,0.355,0.369,0.753,0.673,0.994
			c1.474,1.167,2.981,2.291,4.486,3.419c0.192,0.144,0.436,0.218,0.656,0.324c0.079-0.04,0.158-0.08,0.237-0.12
			c-0.18-0.748-0.325-1.506-0.547-2.241c-0.814-2.691-1.782-5.344-2.445-8.071c-0.575-2.366-0.937-4.803-1.166-7.23
			c-0.186-1.976-0.081-3.987,0.004-5.977c0.017-0.401,0.453-0.949,0.831-1.108c0.225-0.095,0.895,0.35,1.055,0.696
			c0.906,1.96,1.818,3.928,2.534,5.962c0.726,2.061,1.327,4.178,1.794,6.312c0.369,1.687,0.511,3.431,0.647,5.158
			c0.223,2.845,0.353,5.697,0.547,8.544c0.015,0.217,0.168,0.51,0.346,0.618c2.072,1.258,4.159,2.491,6.25,3.717
			c0.125,0.073,0.32,0.026,0.483,0.035c0.003-0.21,0.074-0.449-0.001-0.624c-0.711-1.651-1.373-3.329-2.189-4.928
			c-1.718-3.366-3.116-6.846-3.774-10.573c-0.38-2.153-0.59-4.339-0.784-6.519c-0.105-1.181-0.044-2.38,0-3.568
			c0.011-0.299,0.177-0.743,0.397-0.842c0.224-0.101,0.71,0.044,0.897,0.25c1.786,1.956,3.546,3.91,4.592,6.429
			c1.285,3.096,2.16,6.295,2.797,9.567c0.592,3.04,1.037,6.11,1.696,9.135c0.299,1.374,0.94,2.677,1.468,3.995
			c0.094,0.235,0.359,0.463,0.6,0.568c1.227,0.537,2.466,1.045,3.714,1.53c0.203,0.079,0.47-0.008,0.708-0.019
			c-0.028-0.231-0.003-0.485-0.09-0.691c-1.418-3.329-2.942-6.616-4.238-9.991c-0.572-1.489-0.817-3.14-0.979-4.741
			c-0.235-2.327-0.269-4.675-0.364-7.015c-0.012-0.301,0.065-0.642,0.209-0.907c0.283-0.523,0.701-0.954,1.263-0.335
			c1.03,1.133,2.15,2.218,2.982,3.487c1.806,2.753,3.111,5.781,4.031,8.932c0.716,2.449,1.187,4.975,1.672,7.485
			c0.323,1.67,0.434,3.382,0.744,5.055c0.076,0.408,0.502,0.974,0.871,1.072c3.871,1.024,7.741,2.078,11.658,2.895
			c2.664,0.556,5.397,0.813,8.111,1.084c2.157,0.216,4.331,0.296,6.499,0.354c2.078,0.056,4.167,0.114,6.238-0.023
			c2.638-0.174,5.268-0.499,7.891-0.84c2.675-0.348,5.36-0.68,7.998-1.229c3.03-0.63,6.006-1.515,9.018-2.236
			c0.924-0.221,1.227-0.816,1.291-1.631c0.317-3.986,1.264-7.859,2.282-11.699c0.787-2.97,1.878-5.866,3.595-8.46
			c0.831-1.255,1.72-2.475,2.639-3.667c0.356-0.461,0.869-0.801,1.288-1.176c0.997,0.302,1.053,1.118,1.067,1.821
			c0.057,2.77-0.135,5.506-0.556,8.271c-0.545,3.587-2.285,6.657-3.532,9.941c-0.494,1.3-1.177,2.528-1.763,3.794
			c-0.052,0.113-0.087,0.338-0.036,0.374c0.113,0.078,0.313,0.131,0.432,0.082c1.474-0.609,3.049-1.07,4.363-1.929
			c0.709-0.464,1.161-1.567,1.393-2.468c0.578-2.251,0.975-4.549,1.423-6.833c0.371-1.896,0.628-3.818,1.084-5.691
			c0.53-2.176,1.172-4.329,1.859-6.462c1.002-3.107,2.877-5.677,5.178-7.947c0.223-0.22,0.713-0.42,0.937-0.318
			c0.237,0.109,0.403,0.581,0.43,0.909c0.384,4.72-0.406,9.318-1.772,13.794c-0.742,2.43-1.922,4.729-2.937,7.073
			c-0.668,1.543-1.399,3.058-2.089,4.591c-0.063,0.139-0.034,0.319-0.062,0.639c0.402-0.097,0.75-0.105,1.018-0.256
			c1.787-1.009,3.555-2.05,5.333-3.076c0.556-0.321,0.853-0.725,0.866-1.433c0.073-4.05,0.438-8.073,0.973-12.094
			c0.553-4.146,2.117-7.954,3.536-11.819c0.271-0.739,0.741-1.414,1.189-2.072c0.136-0.2,0.607-0.409,0.748-0.323
			c0.374,0.226,0.912,0.602,0.925,0.935c0.097,2.531,0.302,5.044-0.063,7.603c-0.493,3.459-1.289,6.805-2.446,10.092
			c-0.602,1.712-1.035,3.485-1.518,5.238c-0.076,0.277-0.011,0.594-0.011,1.109c1.076-0.758,2-1.392,2.906-2.051
			c0.736-0.536,1.428-1.135,2.181-1.647c0.941-0.639,0.988-1.624,1.03-2.575c0.2-4.541,0.295-9.088,0.555-13.625
			c0.148-2.58,0.583-5.142,0.811-7.719c0.214-2.42,1.054-4.651,1.935-6.871c0.133-0.336,0.527-0.682,0.868-0.776
			c0.169-0.046,0.577,0.429,0.732,0.74c1.025,2.063,1.237,4.317,1.313,6.559c0.099,2.898,0.115,5.806-0.007,8.703
			c-0.085,2.04-0.396,4.077-0.726,6.096c-0.214,1.308-0.65,2.579-0.969,3.871c-0.049,0.2-0.007,0.423-0.007,0.635
			c0.072,0.024,0.144,0.049,0.215,0.073c1.683-1.632,3.383-3.246,5.03-4.912c0.265-0.268,0.398-0.763,0.416-1.162
			c0.126-2.809-0.398-5.556-0.766-8.327c-0.43-3.24-1.381-6.434-1.103-9.747c0.226-2.693,0.54-5.378,0.821-8.066
			c0.044-0.423,0.066-0.863,0.205-1.257c0.108-0.309,0.369-0.776,0.583-0.788c0.323-0.018,0.749,0.225,0.982,0.489
			c1.14,1.287,1.493,2.93,1.883,4.532c1.039,4.271,1.413,8.612,1.217,13.001c-0.084,1.881-0.235,3.759-0.325,5.64
			c-0.012,0.24,0.158,0.488,0.244,0.733c0.194-0.137,0.43-0.24,0.574-0.418c0.893-1.11,1.777-2.227,2.632-3.366
			c0.175-0.233,0.315-0.581,0.291-0.86c-0.142-1.701-0.216-3.42-0.538-5.09c-0.581-3.011-1.342-5.986-1.98-8.987
			c-0.165-0.775-0.182-1.586-0.214-2.383c-0.129-3.201-0.249-6.402-0.334-9.604c-0.009-0.348,0.234-0.703,0.36-1.055
			c0.3,0.226,0.665,0.4,0.89,0.685c1.44,1.82,1.831,4.083,2.519,6.21c0.619,1.916,1.129,3.872,1.598,5.832
			c0.256,1.072,0.372,2.184,0.472,3.285c0.157,1.732,0.255,3.471,0.363,5.207c0.029,0.461,0.004,0.925,0.004,1.388
			c0.121,0.055,0.242,0.11,0.363,0.165c0.068-0.151,0.12-0.312,0.207-0.451c0.981-1.565,1.961-3.131,2.954-4.688
			c0.528-0.828,0.008-1.567-0.255-2.263c-1.045-2.767-2.157-5.509-3.285-8.244c-0.968-2.348-1.285-4.821-1.569-7.312
			c-0.151-1.323-0.454-2.629-0.609-3.952c-0.055-0.465,0.127-0.957,0.201-1.437c0.34,0.263,0.752,0.47,1.008,0.798
			c2.148,2.758,3.594,5.857,4.447,9.246c0.576,2.289,1.212,4.562,1.801,6.847c0.084,0.326,0.021,0.689,0.095,1.019
			c0.049,0.22,0.221,0.413,0.338,0.618c0.168-0.125,0.41-0.213,0.493-0.381c0.74-1.478,1.462-2.966,2.159-4.464
			c0.081-0.175,0.038-0.458-0.043-0.65c-1.046-2.49-2.124-4.968-3.165-7.46c-1.029-2.461-2.145-4.896-2.996-7.419
			c-0.576-1.708-0.787-3.543-1.093-5.333c-0.055-0.324,0.219-0.704,0.342-1.059c0.26,0.207,0.604,0.364,0.766,0.63
			c1.588,2.601,3.326,5.132,4.66,7.86c1.23,2.516,2.018,5.248,2.998,7.886c0.049,0.131,0.064,0.276,0.125,0.399
			c0.033,0.067,0.132,0.102,0.359,0.263c0.288-0.703,0.576-1.355,0.823-2.022c0.367-0.987,0.721-1.978,1.048-2.979
			c0.159-0.487,0.135-0.921-0.184-1.428c-1.346-2.144-2.543-4.384-3.921-6.507c-1.324-2.04-2.553-4.126-3.331-6.424
			c-0.513-1.517-0.796-3.115-1.127-4.688c-0.049-0.233,0.205-0.529,0.319-0.796c0.303,0.131,0.696,0.184,0.895,0.408
			c1.058,1.195,2.171,2.361,3.073,3.669c2.105,3.051,3.964,6.245,5.055,9.828c0.079,0.258,0.327,0.465,0.496,0.696
			c0.164-0.264,0.411-0.508,0.479-0.794c0.438-1.852,0.764-3.734,1.277-5.564c0.301-1.074-0.207-1.796-0.78-2.46
			c-1.342-1.557-2.821-2.996-4.164-4.552c-1.849-2.143-3.027-4.679-4.063-7.287c-0.494-1.244-1.044-2.466-1.524-3.715
			c-0.122-0.316-0.074-0.697-0.105-1.048c0.36,0.083,0.822,0.053,1.065,0.269c1.512,1.339,3.041,2.67,4.434,4.127
			c1.377,1.44,2.657,2.983,3.867,4.567c0.646,0.845,1.043,1.878,1.581,2.81c0.125,0.217,0.369,0.364,0.559,0.544
			c0.099-0.207,0.26-0.406,0.287-0.622c0.186-1.495,0.423-2.992,0.474-4.493c0.021-0.624-0.205-1.415-0.611-1.867
			c-1.445-1.604-2.996-3.114-4.543-4.623c-1.743-1.7-3.477-3.404-4.766-5.492c-0.757-1.226-1.497-2.465-2.185-3.73
			c-0.11-0.203-0.002-0.709,0.175-0.834c0.203-0.144,0.696-0.146,0.892,0.008c2.757,2.169,5.733,4.087,8.028,6.794
			c0.882,1.041,1.679,2.155,2.521,3.23c0.179,0.228,0.387,0.434,0.725,0.807c0.075-0.432,0.139-0.638,0.141-0.844
			c0.011-0.977-0.119-1.973,0.03-2.927c0.369-2.365-1.024-3.762-2.64-5.006c-1.713-1.319-3.572-2.451-5.249-3.811
			c-1.049-0.851-1.934-1.928-2.791-2.985c-0.965-1.191-1.835-2.462-2.701-3.729c-0.157-0.23-0.237-0.757-0.1-0.891
			c0.233-0.23,0.704-0.418,1.008-0.345c2.033,0.49,3.685,1.735,5.412,2.836c2.488,1.586,4.299,3.809,5.974,6.175
			c0.155,0.219,0.407,0.37,0.805,0.722c-0.168-1.867-0.078-3.51-0.531-4.987c-0.306-0.998-1.25-1.926-2.129-2.596
			c-1.807-1.377-3.733-2.606-5.663-3.81c-1.859-1.159-3.218-2.813-4.643-4.41c-0.626-0.702-1.252-1.406-1.824-2.151
			c-0.195-0.253-0.224-0.634-0.329-0.956c0.306-0.041,0.657-0.201,0.91-0.105c1.593,0.603,3.175,1.242,4.742,1.91
			c2.538,1.081,4.57,2.871,6.527,4.755c0.357,0.343,0.666,0.736,0.997,1.106c0.103-0.03,0.205-0.06,0.308-0.09
			c-0.063-0.699-0.095-1.402-0.197-2.094c-0.087-0.588-0.307-1.158-0.376-1.747c-0.292-2.504-2.182-3.639-4.091-4.672
			c-1.567-0.848-3.281-1.421-4.866-2.239c-0.973-0.503-1.927-1.134-2.709-1.895c-1.203-1.171-2.261-2.492-3.352-3.774
			c-0.163-0.191-0.296-0.693-0.222-0.748c0.247-0.18,0.634-0.362,0.896-0.289c0.951,0.267,1.894,0.587,2.799,0.981
			c1.249,0.545,2.527,1.071,3.673,1.794c1.802,1.137,3.503,2.432,5.25,3.656c0.129,0.09,0.283,0.144,0.675,0.338
			c-0.183-0.76-0.277-1.321-0.455-1.855c-0.414-1.242-0.838-2.482-1.327-3.695c-0.128-0.316-0.465-0.64-0.784-0.773
			c-2.539-1.056-5.164-1.929-7.629-3.133c-2.135-1.043-4.101-2.436-6.123-3.704c-0.199-0.124-0.27-0.451-0.401-0.684
			c0.255-0.022,0.511-0.066,0.766-0.064c3.785,0.03,7.109,1.611,10.445,3.135c0.486,0.222,0.893,0.612,1.36,0.882
			c0.138,0.08,0.385,0.069,0.532-0.004c0.073-0.036,0.092-0.332,0.032-0.464c-0.781-1.714-1.52-3.453-2.418-5.106
			c-0.229-0.421-0.948-0.682-1.49-0.81c-2.289-0.542-4.634-0.875-6.885-1.537c-2.066-0.607-3.78-1.953-5.444-3.307
			c-0.354-0.288-0.727-0.553-1.065-0.858c-0.148-0.133-0.229-0.34-0.34-0.513c0.174-0.069,0.353-0.206,0.523-0.196
			c1.08,0.065,2.159,0.16,3.238,0.249c3.049,0.25,5.791,1.409,8.452,2.825c0.254,0.135,0.576,0.143,1.139,0.273
			c-0.74-1.272-1.335-2.322-1.956-3.356c-0.557-0.928-1.17-1.823-1.704-2.764c-0.296-0.522-0.677-0.704-1.256-0.674
			c-2.505,0.132-4.996-0.054-7.315-1.044c-2.672-1.141-5.274-2.448-7.892-3.712c-0.328-0.158-0.571-0.49-0.854-0.742
			c0.012-0.103,0.024-0.205,0.036-0.308c0.579-0.137,1.18-0.45,1.735-0.382c2.311,0.283,4.634,0.564,6.902,1.072
			c1.729,0.387,3.381,1.119,5.072,1.684c0.164,0.055,0.36,0.012,0.542,0.015c-0.031-0.194,0.001-0.436-0.104-0.574
			c-1.136-1.496-2.288-2.981-3.45-4.456c-0.292-0.371-0.612-0.51-1.174-0.372c-3.268,0.802-6.371-0.071-9.425-1.126
			c-1.476-0.51-2.915-1.134-4.344-1.765c-0.401-0.177-0.726-0.547-1.055-0.862c-0.165-0.158-0.409-0.499-0.358-0.569
			c0.151-0.209,0.412-0.399,0.664-0.464c1.511-0.391,3.025-0.363,4.541,0.019c2.533,0.637,5.07,1.256,7.608,1.872
			c0.138,0.033,0.299-0.029,0.449-0.047c-0.023-0.175,0.018-0.411-0.08-0.517c-1.268-1.359-2.549-2.707-3.847-4.037
			c-0.138-0.141-0.404-0.202-0.617-0.219c-1.649-0.129-3.315-0.13-4.945-0.378c-2.242-0.341-4.477-0.787-6.677-1.338
			c-1.222-0.306-2.369-0.916-3.549-1.391c-0.158-0.064-0.311-0.141-0.398-0.343c4.321-2.012,8.442-1.15,12.534,0.575
			c0.031-0.079,0.061-0.158,0.092-0.237c-0.145-0.228-0.246-0.508-0.443-0.675c-1.409-1.203-2.849-2.37-4.257-3.574
			c-0.821-0.702-1.677-1.077-2.789-0.756c-2.307,0.666-4.702,0.554-7.059,0.594c-2.213,0.038-4.454-0.081-6.56-0.938
			c-0.219-0.089-0.404-0.261-0.605-0.395c0.182-0.194,0.328-0.467,0.552-0.572c3.148-1.477,6.43-1.598,9.786-0.924
			c0.692,0.139,1.385,0.278,2.083,0.378c0.146,0.021,0.363-0.095,0.457-0.217c0.047-0.06-0.069-0.341-0.182-0.416
			c-1.844-1.235-3.68-2.485-5.571-3.645c-0.331-0.203-0.94-0.122-1.359,0.016c-1.744,0.574-3.506,1.199-5.35,0.922
			c-2.272-0.341-4.514-0.886-6.763-1.369c-0.357-0.077-0.686-0.29-1.027-0.44c0.364-0.212,0.703-0.504,1.095-0.624
			c2.699-0.829,5.419-0.563,8.136-0.084c0.559,0.098,1.116,0.218,1.679,0.273c0.183,0.018,0.383-0.139,0.575-0.216
			c-0.11-0.172-0.178-0.423-0.335-0.505c-2.098-1.099-4.18-2.238-6.333-3.22c-0.712-0.325-1.613-0.28-2.431-0.32
			c-1.044-0.05-2.101,0.068-3.137-0.036c-1.297-0.13-2.596-0.337-3.862-0.645c-1.917-0.466-3.58-1.445-5.024-2.795
			c-0.483-0.451-1.002-0.863-1.665-1.429c0.987-0.115,1.737-0.28,2.486-0.276c2.059,0.01,4.124,0.012,6.175,0.171
			c1.503,0.116,2.869,0.79,4.004,1.779c1.633,1.423,3.663,2.049,5.556,2.957c1.546,0.742,3.084,1.498,4.633,2.234
			c0.279,0.132,0.591,0.193,0.888,0.287c0.049-0.078,0.099-0.156,0.148-0.234c-0.217-0.272-0.397-0.587-0.657-0.809
			c-1.923-1.645-3.18-3.737-4.024-6.082c-0.208-0.578-0.15-1.252-0.214-1.883c0.101-0.056,0.202-0.112,0.303-0.168
			c0.642,0.519,1.313,1.007,1.921,1.562c2.6,2.373,4.34,5.251,5.1,8.712c0.062,0.28,0.366,0.566,0.631,0.732
			c1.812,1.132,3.641,2.239,5.476,3.334c0.206,0.123,0.487,0.12,0.733,0.176c-0.051-0.249-0.037-0.539-0.164-0.741
			c-1.652-2.638-2.301-5.51-2.066-8.597c0.01-0.133,0.076-0.261,0.184-0.61c0.558,0.562,1.065,0.988,1.47,1.495
			c1.664,2.08,2.883,4.386,3.256,7.055c0.14,1.001,0.078,2.029,0.159,3.041c0.022,0.283,0.147,0.649,0.354,0.812
			c1.95,1.527,3.927,3.02,5.901,4.516c0.055,0.042,0.164,0.014,0.386,0.025c-0.053-0.268-0.072-0.501-0.145-0.716
			c-0.597-1.741-1.326-3.448-1.764-5.227c-0.274-1.113-0.159-2.335-0.131-3.505c0.014-0.568,0.436-0.687,0.821-0.281
			c0.468,0.494,0.883,1.045,1.272,1.605c1.774,2.556,3.006,5.356,3.622,8.408c0.179,0.888,0.171,1.813,0.333,2.706
			c0.081,0.447,0.258,0.951,0.559,1.271c0.802,0.853,1.687,1.629,2.557,2.415c0.225,0.203,0.518,0.331,0.878,0.418
			c-0.869-3.536-1.666-7.013-0.937-10.794c0.238,0.226,0.459,0.389,0.621,0.599c1.634,2.11,2.554,4.539,3.224,7.095
			c0.48,1.831,0.952,3.624,0.37,5.536c-0.225,0.74-0.076,1.465,0.553,2.114c1.041,1.075,1.963,2.266,3.088,3.588
			c0.111-0.464,0.263-0.717,0.203-0.903c-0.878-2.706-0.494-5.353,0.347-7.977c0.162-0.506,0.361-1.022,0.658-1.455
			c0.181-0.265,0.583-0.518,0.883-0.514c0.2,0.002,0.501,0.438,0.574,0.727c0.328,1.292,0.704,2.587,0.85,3.905
			c0.219,1.982,0.32,3.983,0.354,5.978c0.019,1.123-0.124,2.263-0.329,3.37c-0.181,0.976,0.035,1.76,0.621,2.527
			c0.638,0.836,1.195,1.733,1.816,2.584C224.11,68.897,224.4,69.11,224.802,69.5z"/>
		<path fill="#258DC8" d="M69.132,125.861c3.734,0,7.469,0.02,11.203-0.017c0.757-0.007,1.021,0.369,1.158,0.98
			c0.498,2.214,0.897,4.455,1.504,6.638c1.104,3.972,2.845,7.68,5.005,11.187c1.738,2.823,3.733,5.445,5.965,7.908
			c3.776,4.164,8.135,7.556,12.995,10.351c4.629,2.662,9.545,4.582,14.733,5.786c3.021,0.701,6.07,1.296,9.196,1.296
			c2.282,0,4.58,0.172,6.841-0.046c2.934-0.283,5.859-0.777,8.752-1.358c4.688-0.941,9.15-2.578,13.391-4.793
			c3.726-1.946,7.208-4.25,10.398-7.004c4.933-4.26,8.975-9.217,12.024-14.988c2.126-4.025,3.772-8.211,4.525-12.721
			c0.149-0.895,0.288-1.797,0.538-2.665c0.084-0.291,0.483-0.513,0.775-0.713c0.118-0.08,0.336-0.015,0.508-0.015
			c7.699,0,15.397,0,23.096,0c1.132,0,1.117,0,0.961,1.145c-0.856,6.265-2.584,12.301-4.933,18.151
			c-2.16,5.38-4.848,10.51-8.223,15.228c-2.035,2.845-4.297,5.535-6.567,8.201c-1.484,1.742-3.063,3.433-4.781,4.939
			c-2.568,2.25-5.248,4.38-7.968,6.446c-3.482,2.644-7.252,4.864-11.22,6.678c-3.44,1.573-6.978,2.952-10.541,4.227
			c-2.374,0.849-4.84,1.498-7.313,1.995c-2.809,0.565-5.661,1.031-8.516,1.233c-3.936,0.278-7.893,0.363-11.841,0.345
			c-2.094-0.01-4.196-0.341-6.275-0.656c-2.526-0.382-5.07-0.752-7.537-1.395c-3.404-0.888-6.783-1.914-10.096-3.097
			c-2.542-0.908-5.014-2.051-7.428-3.265c-4.851-2.439-9.476-5.273-13.604-8.82c-2.904-2.495-5.812-5.02-8.44-7.795
			c-4.222-4.46-7.842-9.406-10.869-14.773c-2.36-4.184-4.378-8.523-5.968-13.05c-1.528-4.352-2.71-8.802-3.407-13.371
			c-0.06-0.393-0.117-0.787-0.17-1.181c-0.134-1.006-0.133-1.009,0.926-1.01C61.663,125.86,65.398,125.861,69.132,125.861z
			 M113.697,179.956c0.028,0.316,0.037,0.538,0.069,0.757c0.138,0.958,0.57,1.601,1.628,1.754c0.811,0.117,1.593,0.424,2.401,0.569
			c2.46,0.441,4.92,0.891,7.394,1.246c1.492,0.214,3.008,0.338,4.515,0.358c3.171,0.043,6.351,0.115,9.514-0.062
			c2.374-0.132,4.752-0.518,7.08-1.013c1.495-0.317,3.409,0.117,4.217-1.917c0.545,0.764,1.259,0.665,1.922,0.51
			c0.885-0.207,1.765-0.471,2.606-0.813c0.362-0.147,0.718-0.497,0.901-0.847c0.239-0.457,0.303-1.005,0.404-1.373
			c0.879,0,1.615,0.002,2.351,0c2.22-0.007,1.964,0.197,2.454-1.908c0.241-1.038,0.342-2.021-0.568-2.843
			c-0.399-0.36-0.769-0.78-1.051-1.235c-0.484-0.781-1.041-0.635-1.663-0.247c-1.38,0.863-2.228,2.158-2.636,3.671
			c-0.27,1.001-0.713,1.532-1.736,1.785c-1.362,0.338-1.4,0.387-1.67-0.985c-0.066-0.334-0.082-0.686-0.199-1.001
			c-0.132-0.356-0.352-0.678-0.607-1.15c-1.029,1.333-2.377,2.332-1.433,4.262c-1.325,0.282-2.533,0.54-3.502,0.746
			c-0.23-0.569-0.282-1.143-0.592-1.378c-0.783-0.594-1.669-1.06-2.543-1.521c-0.224-0.118-0.594-0.112-0.835-0.013
			c-0.918,0.38-1.827,0.791-2.71,1.248c-1.015,0.526-1.998,1.113-3.002,1.677c0.026-0.467,0.073-0.861,0.064-1.254
			c-0.017-0.693,0.021-1.298,0.607-1.852c0.439-0.415,0.64-1.083,0.972-1.683c-1.204-0.363-2.286-0.667-2.825-2.121
			c-0.634,0.824-1.184,1.4-1.537,2.08c-0.115,0.222,0.287,0.711,0.448,1.079c0.045,0.104,0.092,0.212,0.108,0.323
			c0.178,1.237,0.384,2.472,0.497,3.716c0.024,0.269-0.273,0.801-0.455,0.817c-0.98,0.082-1.971,0.039-3.095,0.039
			c0.278-0.433,0.501-0.697,0.633-1.001c0.382-0.881,0.212-1.748-0.252-2.532c-0.393-0.664-1.136-0.769-1.76-0.554
			c-1.935,0.668-3.577,1.799-5.009,3.562c-2.449-0.488-5.044-0.983-7.628-1.527c-1.289-0.271-1.282-0.31-1.208-1.573
			c0.01-0.17,0.075-0.337,0.076-0.506c0.006-1.472,0.004-2.945,0.004-4.422c-0.832,0.088-1.962,1.033-2.15,1.687
			c-0.055,0.192-0.265,0.412-0.453,0.477c-0.343,0.12-0.721,0.171-1.088,0.185c-2.397,0.092-3.958,1.36-4.96,3.494
			c1.14,0.614,2.274,1.214,3.397,1.832c1.332,0.733,1.349,0.738,2.535-0.23C113.431,180.187,113.531,180.098,113.697,179.956z
			 M85.401,160.87c1.365-1.628,2.717-3.206,4.016-4.827c0.186-0.232,0.28-0.81,0.13-0.987c-0.453-0.538-2.677-0.2-3.155,0.364
			c-1.365,1.609-2.726,3.222-4.138,4.788c-0.939,1.042-0.979,1.009-0.095,2.06c0.349,0.415,0.689,0.838,1.064,1.229
			c3.073,3.204,6.43,6.082,10.05,8.648c0.959,0.679,1.875,1.489,3.255,0.96c1.942-0.745,3.895-0.719,5.806,0.204
			c0.154,0.075,0.447,0.025,0.595-0.08c0.522-0.372,1.009-0.794,1.601-1.272c-0.57-0.376-1.102-0.616-1.49-1.002
			c-1.107-1.103-2.219-2.212-3.211-3.416c-1.459-1.771-4.548-1.509-5.143,0.589c1.329,0.847,2.627,1.674,3.924,2.5
			C96.717,170.879,89.14,165.113,85.401,160.87z M181.814,160.866c-0.302-0.418-0.438-0.639-0.606-0.833
			c-1.1-1.272-2.206-2.538-3.311-3.805c-0.452-0.519-1.122-0.504-1.201,0.061c-0.181,1.298-0.871,2.581,0.495,3.82
			c1.426,1.295,2.597,2.874,3.859,4.345c0.521,0.607,0.948,0.668,1.521,0.028c1.429-1.597,2.975-3.093,4.349-4.734
			c2.116-2.528,4.128-5.144,6.119-7.642c-0.29-0.654-0.539-1.107-0.683-1.591c-0.066-0.222-0.017-0.608,0.136-0.744
			c0.742-0.66,1.563-1.231,2.304-1.893c0.531-0.475,1.294-0.853,1.147-1.769c-0.18-1.124-0.358-2.264-1.266-3.081
			c-0.173-0.156-0.466-0.199-0.712-0.248c-0.389-0.077-0.787-0.107-1.179-0.169c-1.581-0.249-2.009,0.01-2.52,1.535
			c-0.586,1.747-0.656,3.502-0.169,5.292c0.088,0.322,0.013,0.79-0.172,1.066c-0.889,1.32-1.793,2.635-2.782,3.88
			C185.462,156.5,183.715,158.562,181.814,160.866z M71.379,138.627c0.039-0.093,0.078-0.185,0.117-0.278
			c-0.622-0.876-1.555-1.403-2.57-1.541c-1.117-0.152-2.391-0.425-3.249,0.718c-0.583,0.777-0.518,1.662-0.398,2.595
			c0.302,2.336,1.123,4.386,2.843,6.05c1.5,1.45,3.769,1.548,5.26,0.061c0.694-0.692,1.304-1.528,1.737-2.405
			c0.501-1.014,0.652-1.101-0.613-1.446c-0.274-0.075-0.547-0.151-0.817-0.236c-0.579-0.181-0.944-0.031-1.213,0.565
			c-0.394,0.872-0.892,1.697-1.35,2.551c-1.592-1.045-3.072-4.448-2.724-6.086c0.144-0.678,0.698-1.011,1.432-0.861
			C70.351,138.418,70.865,138.523,71.379,138.627z M165.486,173.441c0.047,0.008,0.094,0.017,0.141,0.025
			c0,0.258-0.003,0.516,0,0.774c0.017,1.291,0.853,1.903,2.035,1.414c2.125-0.879,3.899-2.469,3.901-5.28
			c0.001-1.703-0.844-2.953-2.768-2.785c-0.368,0.032-0.78,0.084-1.108-0.042c-0.775-0.298-1.078,0.08-1.208,0.729
			C166.135,169.995,165.816,171.719,165.486,173.441z M171.479,174.109c0.035,0.141,0.069,0.283,0.104,0.424
			c0.899-0.137,1.815-0.204,2.692-0.428c1.578-0.404,3.232-0.866,4.074-2.388c0.575-1.039,0.832-2.273,1.12-3.447
			c0.511-2.086-0.673-4.367-3.361-4.298c-2.326,0.06-2.032-0.439-2.001,2.246c0.003,0.224,0.393,0.577,0.658,0.639
			c0.602,0.142,1.237,0.148,1.86,0.194c0.681,0.051,0.78,0.393,0.599,0.996c-0.806,2.681-2.307,4.736-5.027,5.733
			C171.95,173.872,171.718,173.999,171.479,174.109z M73.235,151.383c-0.133,0.034-0.267,0.067-0.4,0.101
			c0.2,1.182,0.338,2.378,0.612,3.542c0.505,2.148,1.486,3.874,3.967,4.222c2.381,0.334,4.47-0.22,5.004-3.067
			c0.167-0.887,0.085-1.824,0.078-2.738c-0.001-0.143-0.237-0.42-0.324-0.405c-0.754,0.131-1.549,0.212-2.218,0.54
			c-0.226,0.111-0.134,0.886-0.17,1.359c-0.02,0.257,0,0.516-0.004,0.775c-0.02,1.105-0.411,1.391-1.452,1.082
			c-2.323-0.69-3.924-2.122-4.658-4.471C73.568,151.995,73.382,151.695,73.235,151.383z M199.656,141.159
			c-0.17-0.904-0.298-1.583-0.427-2.262c-0.165-0.874-0.628-1.505-1.473-1.844c-1.475-0.591-2.938-1.215-4.423-1.78
			c-0.559-0.212-1.165-0.298-1.93-0.486c0.345,1.177,0.563,2.176,0.943,3.109c0.191,0.469,0.603,1.011,1.047,1.183
			c1.318,0.512,2.704,0.845,4.056,1.273C198.113,140.563,198.758,140.828,199.656,141.159z M82.541,145.685
			c-0.626-0.135-1-0.254-1.383-0.292c-1.356-0.134-2.613-0.121-3.647,1.086c-1.163,1.358-2.509,2.559-3.768,3.836
			c-0.145,0.147-0.24,0.344-0.389,0.563c1.778,0.648,3.275,0.554,4.579-0.855c0.632-0.683,1.442-1.198,2.124-1.839
			C80.872,147.419,81.637,146.6,82.541,145.685z M168.985,164.117c-0.814,0.081-1.433,0.227-2.037,0.181
			c-0.75-0.058-1.13,0.231-1.252,0.927c-0.139,0.795-0.589,1.043-1.389,1.009c-1.453-0.061-1.472-0.022-2.022,1.371
			c-0.137,0.346-0.122,0.752-0.178,1.131c0.37,0.024,0.74,0.052,1.11,0.069c0.142,0.006,0.29-0.039,0.428-0.017
			c0.858,0.137,1.352-0.274,1.617-1.047c0.148-0.429,0.341-0.75,0.905-0.704c0.357,0.029,0.743-0.055,1.086-0.175
			c0.328-0.115,0.753-0.268,0.894-0.533C168.476,165.71,168.658,165.015,168.985,164.117z M109.282,169.343
			c0.621,0.714,1.075,1.296,1.599,1.807c0.186,0.181,0.63,0.346,0.806,0.249c0.985-0.547,1.547-0.151,2.065,0.695
			c0.174,0.284,0.679,0.626,0.924,0.556c0.747-0.212,1.44-0.611,2.293-1.001c-0.535-0.488-1.029-0.782-1.292-1.215
			c-0.472-0.776-1.037-0.932-1.763-0.486c-0.53,0.325-0.85,0.116-1.148-0.299c-0.215-0.299-0.402-0.622-0.642-0.898
			c-0.113-0.13-0.355-0.281-0.483-0.242C110.895,168.739,110.166,169.023,109.282,169.343z M132.612,174.533
			c-0.654-0.386-1.22-0.658-1.711-1.029c-0.496-0.374-0.891-0.356-1.336,0.049c-0.513,0.466-1.035,0.509-1.572-0.005
			c-0.201-0.192-0.468-0.321-0.719-0.453c-0.429-0.226-2.208,0.593-2.299,1.05c-0.011,0.054-0.019,0.141,0.011,0.165
			c0.593,0.472,1.151,1.011,1.809,1.363c0.24,0.129,0.717-0.205,1.092-0.302c0.321-0.083,0.75-0.292,0.964-0.164
			c1.743,1.036,1.731,1.056,3.287-0.28C132.261,174.824,132.385,174.722,132.612,174.533z M98.14,177.261
			c-0.497-0.77-0.964-1.322-1.232-1.957c-0.306-0.725-0.781-0.91-1.477-0.813c-0.449,0.063-0.899,0.119-1.349,0.179
			c-0.422,0.057-0.554,0.295-0.33,0.648c0.44,0.695,0.906,1.374,1.377,2.049c0.069,0.099,0.234,0.199,0.344,0.189
			C96.308,177.48,97.14,177.376,98.14,177.261z M74.954,136.918c-0.779,2.126-0.39,3.897,2.128,4.191
			C77.583,138.337,77.31,137.784,74.954,136.918z M147.123,174.413c1.009,0.232,1.739,0.439,2.483,0.547
			c0.22,0.032,0.541-0.162,0.71-0.349c0.36-0.396,0.693-0.833,0.945-1.302c0.083-0.154-0.066-0.634-0.191-0.668
			c-0.753-0.207-1.529-0.327-2.329-0.483C148.252,172.84,147.764,173.519,147.123,174.413z M85.991,152.008
			c-0.197-0.982-0.367-1.861-0.559-2.735c-0.024-0.11-0.149-0.252-0.255-0.283c-0.716-0.207-1.44-0.387-2.186-0.583
			C82.819,150.912,83.352,151.549,85.991,152.008z M201.141,140.057c-0.81,0.633-1.049,1.341-0.843,2.699
			c0.045,0.297,0.224,0.702,0.454,0.803c0.205,0.09,0.565-0.17,0.858-0.276c0.037,0.134,0.104,0.375,0.19,0.686
			c0.659-0.959,1.096-4.148,0.639-4.577c-0.491,0.922-0.976,1.834-1.465,2.752C200.702,141.391,202.401,140.898,201.141,140.057z"/>
		<path fill="#258DC8" d="M96.801,125.344c3.649,0,7.297,0.016,10.946-0.012c0.793-0.006,1.276,0.259,1.588,1.004
			c1.118,2.673,2.586,5.14,4.427,7.384c2.019,2.461,4.332,4.589,7.044,6.27c3.269,2.026,6.816,3.397,10.631,3.727
			c2.158,0.186,4.377-0.194,6.557-0.422c3.351-0.352,6.397-1.684,9.232-3.386c3.457-2.076,6.413-4.769,8.496-8.284
			c1.058-1.785,1.972-3.656,3.001-5.459c0.181-0.317,0.581-0.62,0.934-0.705c0.568-0.137,1.181-0.112,1.775-0.113
			c7.182-0.006,14.365-0.006,21.547,0.002c0.335,0,0.703,0.018,0.995,0.156c0.19,0.09,0.407,0.438,0.375,0.631
			c-0.648,3.892-1.808,7.639-3.437,11.225c-1.656,3.645-3.569,7.175-6.178,10.225c-2.091,2.446-4.379,4.734-6.685,6.983
			c-2.462,2.401-5.334,4.286-8.343,5.924c-2.002,1.09-4.068,2.096-6.19,2.924c-2.38,0.928-4.827,1.718-7.297,2.368
			c-1.832,0.482-3.742,0.691-5.628,0.937c-1.777,0.232-3.566,0.413-5.356,0.504c-1.135,0.057-2.284-0.058-3.421-0.158
			c-1.53-0.134-3.058-0.301-4.58-0.503c-3.565-0.473-7.027-1.367-10.404-2.605c-3.819-1.4-7.423-3.221-10.812-5.47
			c-3.545-2.353-6.745-5.123-9.574-8.282c-2.492-2.783-4.625-5.839-6.442-9.129c-1.915-3.467-3.364-7.103-4.448-10.894
			c-0.374-1.308-0.613-2.656-0.897-3.99c-0.148-0.693,0.287-0.85,0.851-0.85c1.867-0.001,3.735-0.001,5.602-0.001
			C93.009,125.344,94.905,125.344,96.801,125.344z M107.442,149.095c0.506-1.008,0.949-1.872,1.375-2.744
			c0.412-0.844,0.807-1.697,1.249-2.63c-1.716-0.039-2.667,0.633-3.221,2.005c-0.28,0.694-0.66,1.348-1.129,2.289
			c-0.7-0.785-1.188-1.429-1.775-1.964c-0.516-0.471-0.447-0.86-0.058-1.314c0.297-0.346,0.626-0.667,0.89-1.036
			c0.316-0.44,0.139-0.847-0.353-0.875c-0.9-0.051-1.94-0.534-2.598,0.583c-0.046,0.079-0.188,0.102-0.262,0.139
			c-0.617-0.684-1.202-1.339-1.794-1.987c-0.847-0.928-0.835-1.11-0.103-2.101c0.77-1.041,1.487-2.121,2.227-3.184
			c-0.037-0.09-0.074-0.179-0.112-0.269c-0.664-0.036-1.492-0.334-1.955-0.046c-0.739,0.46-1.122,0.088-1.538-0.263
			c-1.474-1.241-3.052-1.597-4.903-0.659c0.347,0.886,0.69,1.814,1.072,2.726c0.452,1.078,0.648,2.455,2.601,2.002
			c-1.024,1.401-0.575,2.38,0.337,3.275c0.079,0.077,0.095,0.226,0.18,0.287c0.996,0.718,1.343,2.268,2.895,2.25
			c0.32,1.576,2.968,4.231,3.984,4.256c0.33,0.496,0.501,0.96,0.833,1.213c1.155,0.88,2.359,1.696,3.556,2.519
			c0.742,0.51,1.525,0.661,2.422,0.346c1.336-0.47,2.712-0.672,4.113-0.245c1.215,0.37,1.698,0.179,2.321-0.799
			c-1.309-1.128-2.64-2.19-3.862-3.364c-0.657-0.631-1.382-0.987-2.233-1.15c-1.024-0.196-2.283,0.789-2.251,1.519
			c1.168,0.684,2.239,1.312,3.311,1.94c-0.057,0.096-0.113,0.191-0.17,0.287C110.556,151.565,109.061,150.278,107.442,149.095z
			 M128.314,159.299c0.344,0.927,0.906,1.071,1.641,1.052c1.821-0.046,3.644-0.038,5.465-0.004c0.715,0.013,1.139-0.338,1.197-0.957
			c0.097-1.038,0.086-2.09,0.057-3.135c-0.015-0.558-0.083-1.079,0.423-1.486c0.194-0.156,0.31-0.405,0.479-0.597
			c0.338-0.384,0.328-0.638-0.155-0.939c-0.716-0.446-1.37-0.991-2.166-1.578c-0.288,0.382-0.65,0.882-1.035,1.365
			c-0.372,0.467-0.326,0.824-0.001,1.366c0.428,0.714,0.652,1.565,0.88,2.381c0.146,0.523-0.055,0.869-0.715,0.84
			c-0.975-0.042-1.958-0.075-2.927,0.007c-0.932,0.079-1.256-0.308-1.376-1.178c-0.184-1.335-0.482-2.654-0.731-3.98
			c-0.085-0.032-0.171-0.065-0.256-0.097c-0.387,0.493-1.037,0.952-1.105,1.485c-0.14,1.103,0.029,2.246,0.077,3.518
			c-1.064-0.177-2.204-0.365-3.342-0.558c-0.586-0.099-0.778-0.392-0.52-0.973c0.072-0.163-0.032-0.404-0.055-0.61
			c-0.107-0.074-0.215-0.147-0.322-0.221c-0.201,0.297-0.446,0.573-0.594,0.895c-0.32,0.696-0.581,1.419-0.881,2.124
			c-0.358,0.841-0.009,1.209,0.819,1.355c0.978,0.172,1.938,0.469,2.92,0.587C126.831,160.05,127.702,160.432,128.314,159.299z
			 M169.526,144.088c0.073,0.066,0.146,0.132,0.22,0.197c0.243-0.159,0.539-0.273,0.722-0.484c1.171-1.355,2.413-2.665,3.451-4.118
			c1.582-2.216,1.501-4.526-0.045-6.741c-0.738-1.057-1.809-1.326-3.014-1.194c-0.835,0.092-1.627,0.434-1.919,1.237
			c-0.56,1.54-0.464,3.131,0.113,4.658c0.279,0.739,1.066,1.113,1.642,0.923c1.101-0.363,2.437-2.694,2.287-3.896
			C173.205,138.289,171.648,141.287,169.526,144.088z M162.658,149.714c0.053,0.07,0.106,0.141,0.159,0.211
			c1.854-0.333,3.5-1.147,4.837-2.459c1.609-1.579,1.756-3.631,1.457-5.721c-0.114-0.798-0.649-1.411-1.466-1.632
			c-1.207-0.327-2.293,0.162-3.368,0.617c-0.096,0.041-0.201,0.235-0.184,0.339c0.11,0.68,0.252,1.354,0.394,2.078
			c0.615-0.157,1.074-0.302,1.545-0.387c1.128-0.204,1.356,0.051,1.071,1.183c-0.581,2.306-1.76,4.174-3.916,5.329
			C162.989,149.377,162.834,149.564,162.658,149.714z M152.162,153.443c0.006-1.496-0.299-1.893-1.781-2.256
			c-0.356-0.087-0.757-0.036-1.088-0.17c-0.611-0.248-0.963,0.017-1.139,0.525c-0.521,1.496-1.145,2.979-1.444,4.523
			c-0.279,1.441,0.407,1.889,1.87,1.51C150.742,157.014,152.155,155.385,152.162,153.443z M151.711,156.818
			c0.003,0.072,0.006,0.144,0.009,0.217c0.25,0.066,0.503,0.195,0.751,0.186c0.652-0.023,1.317-0.041,1.95-0.18
			c1.277-0.28,2.657-0.49,3.436-1.685c0.533-0.818,0.955-1.753,1.215-2.694c0.487-1.763,0.105-3.498-2.354-3.849
			c-1.773-0.253-2-0.061-1.947,1.715c0.006,0.194,0.041,0.387,0.065,0.61c0.287,0.033,0.539,0.054,0.789,0.092
			c0.252,0.038,0.499,0.11,0.752,0.139c0.915,0.105,1.118,0.4,0.714,1.217c-0.974,1.973-2.383,3.459-4.624,3.971
			C152.208,156.617,151.962,156.73,151.711,156.818z M162.085,149.729c0.89-1.198,0.726-3.008-0.226-4.051
			c-0.267-0.293-0.489-0.632-0.777-0.902c-0.922-0.863-1.865-1.703-2.916-2.657c-0.043,0.814-0.137,1.619-0.109,2.42
			c0.016,0.468,0.09,1.051,0.374,1.372C159.578,147.206,160.816,148.42,162.085,149.729z M141.073,151.059
			c-0.092-0.005-0.185-0.01-0.277-0.015c-0.301,0.503-0.594,1.012-0.906,1.508c-0.467,0.744-0.597,1.507-0.309,2.366
			c0.407,1.213,0.753,2.447,1.123,3.674c0.123,0.409,0.238,0.821,0.356,1.232c0.084,0.002,0.168,0.003,0.251,0.005
			c0.564-0.842,1.36-1.579,1.194-2.761c-0.091-0.645-0.194-1.293-0.351-1.924C141.813,153.776,141.435,152.419,141.073,151.059z
			 M122.758,150.332c-0.354,0.093-0.532,0.097-0.658,0.18c-1.156,0.767-2.326,1.44-2.399,3.142
			c-0.068,1.584-0.453,3.155-0.701,4.751c1.332-0.148,2.331-1.078,2.637-2.487C122.027,154.127,122.362,152.322,122.758,150.332z
			 M96.181,145.09c0.291,0.811,0.539,1.511,0.795,2.209c0.176,0.479,0.437,0.846,1.025,0.871c0.652,0.028,0.934,0.423,1.152,1.036
			c0.555,1.561,1.632,2.093,3.187,1.656c-0.349-0.838-0.682-1.677-1.057-2.497c-0.059-0.128-0.309-0.233-0.473-0.237
			c-0.969-0.023-1.513-0.441-1.755-1.434c-0.314-1.285-0.538-1.388-1.885-1.509C96.922,145.162,96.674,145.137,96.181,145.09z
			 M148.235,148.274c-0.251,0.409-0.532,0.867-0.828,1.349c-0.486-0.093-0.954-0.193-1.426-0.269
			c-0.505-0.081-1.695,1.423-1.502,1.892c0.031,0.075,0.112,0.187,0.165,0.185c0.769-0.036,1.847,0.204,2.233-0.205
			c0.606-0.643,1.156-0.729,1.899-0.725c1,0.006,1.861-1.111,1.684-2.227C149.771,148.274,149.065,148.274,148.235,148.274z
			 M98.917,130.103c0,0.428-0.043,0.803,0.009,1.164c0.106,0.74,0.102,1.552,1.127,1.753c0.179,0.035,0.378,0.471,0.397,0.734
			c0.115,1.649,0.564,2.065,2.319,2.017c-0.04-0.33-0.078-0.66-0.119-0.99c-0.045-0.366-0.047-0.745-0.155-1.091
			c-0.064-0.207-0.279-0.499-0.453-0.519c-0.993-0.116-0.992-0.884-1.065-1.569C100.865,130.548,100.177,129.988,98.917,130.103z
			 M160.491,140.91c1.703,0.288,3.057-1.378,2.706-3.256C160.961,138.516,160.961,138.516,160.491,140.91z M116.819,148.799
			c-1.154-2.094-1.596-2.273-3.342-1.397C114.186,149.399,115.107,149.797,116.819,148.799z"/>
		<path fill="#258DC8" d="M147.77,48.389c-0.082-1.105-0.152-2.043-0.223-2.982c-0.002-0.028-0.026-0.062-0.017-0.083
			c0.541-1.267-0.152-2.468-0.209-3.703c-0.053-1.146-0.722-2.059-1.373-2.957c-0.34-0.468-0.637-0.97-1.01-1.409
			c-0.126-0.149-0.423-0.152-0.642-0.221c-0.039,0.203-0.13,0.411-0.109,0.607c0.363,3.397,0.413,6.742-0.702,10.067
			c-0.575,1.715-1.386,3.225-2.484,4.616c-0.144,0.182-0.404,0.272-0.611,0.405c-0.098-0.245-0.293-0.498-0.275-0.735
			c0.054-0.714,0.251-1.418,0.279-2.131c0.027-0.675-0.134-1.356-0.128-2.033c0.009-0.905-0.437-1.713-0.271-2.703
			c0.139-0.828-0.409-1.772-0.658-2.663c-0.083-0.298-0.152-0.607-0.286-0.882c-0.119-0.244-0.32-0.449-0.484-0.671
			c-0.179,0.212-0.493,0.413-0.514,0.64c-0.094,1.049-0.123,2.104-0.138,3.158c-0.006,0.423,0.107,0.847,0.125,1.272
			c0.124,2.943,0.226,5.886,0.356,8.828c0.096,2.168,0.218,4.335,0.341,6.502c0.037,0.654,0.094,1.308,0.187,1.956
			c0.029,0.203,0.166,0.497,0.325,0.556c0.757,0.279,0.659,0.888,0.699,1.493c0.21,3.158,0.448,6.313,0.669,9.47
			c0.072,1.025,0.177,2.052,0.166,3.077c-0.007,0.685,0.303,0.933,0.886,1.15c0.903,0.337,1.846,0.67,2.622,1.217
			c0.817,0.577,1.552,1.334,2.149,2.142c0.6,0.812,0.583,1.821-0.01,2.658c-0.21,0.297-0.764,0.481-1.166,0.491
			c-2.039,0.048-4.079,0.022-6.119,0.022c-4.683,0-9.366,0-14.048,0c-0.625,0-1.339,0.145-1.651-0.594
			c-0.329-0.781-0.434-1.595,0.041-2.389c1.114-1.862,2.936-2.724,4.873-3.356c0.744-0.243,0.989-0.646,1.051-1.339
			c0.213-2.411,0.449-4.82,0.672-7.23c0.181-1.957,0.344-3.916,0.542-5.871c0.029-0.288,0.133-0.723,0.327-0.81
			c0.664-0.298,0.678-0.827,0.699-1.406c0.109-3.029,0.218-6.059,0.347-9.088c0.097-2.283,0.229-4.565,0.339-6.847
			c0.064-1.313,0.156-2.627,0.153-3.94c-0.001-0.525-0.183-1.064-0.367-1.566c-0.061-0.168-0.384-0.327-0.586-0.325
			c-0.13,0.002-0.325,0.288-0.372,0.476c-0.303,1.2-0.605,2.403-0.841,3.617c-0.136,0.7-0.031,1.46-0.24,2.13
			c-0.544,1.743,0.257,3.449,0.029,5.17c-0.018,0.136-0.042,0.272-0.089,0.575c-0.324-0.226-0.608-0.349-0.785-0.56
			c-1.853-2.212-2.779-4.808-3.106-7.644c-0.121-1.046-0.327-2.094-0.32-3.14c0.008-1.219,0.218-2.435,0.317-3.654
			c0.02-0.247-0.065-0.502-0.102-0.753c-0.258,0.086-0.638,0.093-0.751,0.271c-0.444,0.696-0.803,1.446-1.193,2.176
			c0.074,0.057,0.148,0.114,0.222,0.172c-0.273,0.045-0.546,0.09-0.819,0.135c0.069,0.04,0.138,0.081,0.207,0.121
			c-0.335,0.737-0.67,1.475-1.007,2.211c-0.023,0.05-0.109,0.114-0.099,0.13c0.554,0.879-0.339,1.741-0.017,2.65
			c0.146,0.413,0.011,0.942-0.06,1.409c-0.054,0.36-0.286,0.703-0.294,1.056c-0.007,0.343,0.172,0.689,0.283,1.08
			c-1.022-0.386-3.401-4.838-3.6-6.71c-0.231-2.169-0.815-2.674,1.817-7.24c-0.517-0.32-1.15-0.145-1.472,0.345
			c-0.403,0.614-0.873,1.184-1.281,1.795c-0.237,0.354-0.413,0.749-0.608,1.13c-0.051,0.099-0.043,0.279-0.112,0.309
			c-0.996,0.434-0.628,1.538-1.1,2.214c-0.874,1.25-0.502,2.779-0.953,4.21c-0.153-0.136-0.315-0.209-0.339-0.312
			c-0.445-1.966-1.115-3.92-1.248-5.909c-0.204-3.045,1.414-5.393,3.653-7.311c0.753-0.645,1.614-1.165,2.413-1.759
			c0.166-0.123,0.274-0.323,0.408-0.488c-0.811-0.643-1.507-0.302-2.179,0.088c-0.715,0.415-1.675,0.709-2.051,1.34
			c-0.604,1.014-1.89,1.462-2.044,2.898c-0.093,0.865-0.887,1.655-1.366,2.478c-0.089-0.001-0.179-0.003-0.268-0.004
			c0-0.619-0.076-1.249,0.014-1.854c0.257-1.72,0.58-3.426,1.544-4.936c1.339-2.096,3.343-3.291,5.577-4.183
			c0.609-0.243,1.242-0.427,1.841-0.692c0.25-0.11,0.438-0.36,0.654-0.546c-0.288-0.1-0.604-0.328-0.859-0.274
			c-0.654,0.14-1.266,0.482-1.921,0.605c-1.321,0.25-2.332,1.013-3.342,1.809c-0.111,0.088-0.295,0.083-0.573-0.023
			c0.39-0.488,0.76-0.993,1.173-1.461c1.458-1.649,2.961-3.244,4.938-4.307c1.426-0.767,2.95-1.012,4.541-0.978
			c0.201,0.004,0.415,0.044,0.601-0.009c0.329-0.094,0.641-0.247,0.96-0.375c-0.367-0.251-0.712-0.671-1.106-0.724
			c-1.48-0.199-2.937-0.037-4.32,0.665c0.777-1.312,1.961-2.046,3.372-2.463c1.424-0.421,2.889-0.523,4.276,0.009
			c1.328,0.509,2.575,1.229,3.839,1.847c0.557-2.269,1.099-4.478,1.642-6.687c0.137-0.003,0.274-0.005,0.411-0.008
			c0.515,2.339,1.029,4.678,1.567,7.122c2.626-2.097,5.472-3.1,8.756-1.947c0.957,0.336,1.872,1.189,2.254,2.009
			c-0.748,0.299-1.958-1.087-2.469,0.704c2.189-0.032,3.919,0.821,5.374,2.149c1.339,1.223,2.532,2.607,3.789,3.92
			c-0.063,0.073-0.126,0.147-0.19,0.22c-0.911-0.417-1.807-0.873-2.738-1.239c-0.935-0.367-1.906-0.643-2.857-0.958
			c-0.418,0.879,0.105,1.038,0.622,1.166c1.887,0.467,3.571,1.344,5.085,2.542c1.6,1.266,2.651,2.915,3.052,4.911
			c0.254,1.268,0.335,2.57,0.493,3.857c-0.11,0.04-0.221,0.079-0.331,0.119c-0.204-0.271-0.446-0.521-0.604-0.816
			c-0.484-0.911-0.923-1.847-1.411-2.756c-0.109-0.202-0.346-0.338-0.533-0.495c-0.129-0.108-0.398-0.208-0.391-0.294
			c0.082-1.056-0.979-1.229-1.469-1.809c-0.4-0.473-1.253-0.571-1.911-0.818c-0.345-0.13-0.698-0.263-1.06-0.318
			c-0.259-0.039-0.538,0.05-0.807,0.082c0.144,0.208,0.249,0.465,0.438,0.617c1.373,1.106,2.879,2.074,4.122,3.309
			c2.016,2.002,2.922,4.473,2.289,7.346c-0.372,1.689-0.797,3.366-1.225,5.042c-0.059,0.233-0.273,0.427-0.405,0.624
			c-0.164-1.226-0.299-2.38-0.488-3.526c-0.04-0.244-0.365-0.441-0.403-0.685c-0.04-0.254,0.108-0.538,0.192-0.884
			c-0.173-0.103-0.383-0.228-0.635-0.378c0.021-0.112,0.042-0.247,0.073-0.378c0.126-0.526,0.337-1.065-0.424-1.324
			c-0.132-0.045-0.243-0.242-0.305-0.393c-0.521-1.27-1.274-2.363-2.429-3.132c-0.208-0.139-0.493-0.162-0.743-0.238
			c0.038,0.289,0.003,0.614,0.126,0.86c0.404,0.81,0.953,1.557,1.288,2.391c1.095,2.729,0.255,5.27-0.966,7.709
			c-0.479,0.958-1.193,1.8-1.82,2.681C148.206,48.076,147.986,48.204,147.77,48.389z"/>
		<path fill="#258DC8" d="M187.25,83.41c-0.529,0.031-0.801,0.06-1.072,0.061c-1.982,0.004-3.965,0.01-5.947,0
			c-3.437-0.016-6.81,0.436-10.157,1.224c-4.47,1.053-8.645,2.821-12.732,4.872c-4.855,2.437-9.383,5.378-13.713,8.636
			c-1.388,1.044-2.681,2.213-4.027,3.313c-0.516,0.421-0.383,0.847-0.031,1.256c1.25,1.447,2.516,2.881,3.773,4.322
			c0.469,0.538,0.981,1.047,1.384,1.631c0.42,0.609,0.762,0.481,1.142,0.02c0.416-0.505,0.752-1.098,1.238-1.519
			c0.911-0.789,1.939-1.321,3.2-0.75c1.103,0.5,1.314,1.471,0.461,2.295c-0.844,0.815-1.698,1.621-2.592,2.379
			c-0.42,0.356-0.449,0.758-0.069,0.978c1.121,0.65,2.249,1.478,3.473,1.704c1.147,0.212,2.457,0.019,3.542-0.827
			c0.893-0.696,1.914-1.235,2.906-1.794c1.18-0.664,2.496-0.601,3.771-0.48c1.006,0.095,2.469,2.202,2.25,3.245
			c-0.317,1.507-0.75,2.983-1.911,4.131c-1.251,1.237-2.818,1.73-4.482,1.886c-1.322,0.123-2.666-0.024-3.997,0.037
			c-2.438,0.111-4.49-0.901-6.473-2.127c-0.92-0.569-1.8-1.201-2.702-1.798c-0.398-0.263-0.753-0.302-1.14,0.095
			c-0.517,0.53-1.062,1.051-1.666,1.474c-0.974,0.682-3.1,0.94-3.842-0.114c-0.79-1.123-0.33-2.431,1.027-2.746
			c0.647-0.15,1.277-0.447,1.862-0.772c0.484-0.268,0.55-0.676,0.095-1.116c-2.163-2.093-4.323-4.189-6.458-6.309
			c-0.432-0.429-0.689-0.37-1.117,0.012c-2.235,1.995-4.489,3.97-6.763,5.92c-1.065,0.913-1.1,1.136,0.002,1.985
			c0.314,0.242,0.673,0.425,1.017,0.625c0.945,0.549,1.29,1.445,0.843,2.206c-0.607,1.034-1.567,1.377-2.503,0.756
			c-0.873-0.58-1.668-1.284-2.462-1.975c-0.385-0.335-0.601-0.515-1.126-0.098c-2.163,1.713-4.527,3.104-7.263,3.659
			c-1.022,0.207-2.123,0.223-3.163,0.103c-1.578-0.182-3.12-0.556-4.409-1.63c-1.163-0.969-2.118-2.102-2.037-3.647
			c0.099-1.906,1.118-3.361,2.948-4.048c1.165-0.437,2.301,0.004,3.387,0.488c1.588,0.707,3.154,1.51,4.962,1.438
			c1.369-0.054,2.414-0.84,3.365-1.7c0.451-0.408,0.006-0.839-0.351-1.13c-0.485-0.395-1.031-0.72-1.495-1.137
			c-0.526-0.473-0.549-1.025-0.066-1.577c0.955-1.093,2.139-1.02,3.091,0.187c0.282,0.358,0.607,0.682,0.883,1.043
			c0.485,0.635,0.931,0.569,1.478,0.046c1.861-1.781,3.742-3.541,5.631-5.292c0.474-0.44,0.443-0.806-0.018-1.208
			c-1.612-1.404-3.126-2.942-4.85-4.19c-3.481-2.52-6.979-5.044-10.655-7.258c-2.723-1.64-5.672-2.964-8.641-4.118
			c-3.332-1.295-6.773-2.332-10.217-3.304c-2.041-0.576-4.174-0.831-6.273-1.19c-1.569-0.268-3.15-0.464-4.722-0.717
			c-0.148-0.024-0.266-0.234-0.397-0.358c0.149-0.108,0.288-0.287,0.45-0.312c1.601-0.249,3.199-0.546,4.811-0.684
			c2.104-0.181,4.222-0.351,6.329-0.309c3.653,0.074,7.276,0.564,10.759,1.701c3.459,1.129,6.94,2.249,10.271,3.697
			c2.493,1.084,4.831,2.58,7.112,4.083c2.493,1.642,4.866,3.472,7.242,5.283c1.222,0.932,2.363,1.977,3.493,3.023
			c0.556,0.515,0.931,0.495,1.525,0.016c3.616-2.912,7.185-5.892,10.932-8.627c3.984-2.908,8.459-4.946,13.162-6.424
			c2.766-0.869,5.598-1.44,8.49-1.829c3.057-0.411,6.109-0.4,9.142-0.235c3.223,0.175,6.344,1.041,9.172,2.713
			C186.607,82.764,186.821,83.027,187.25,83.41z"/>
		<path fill="#258DC8" d="M137.942,181.268c2.016-1.504,2.425-1.499,3.778-0.367C140.46,181.023,139.201,181.145,137.942,181.268z"
			/>
		<path fill="#258DC8" d="M127.277,180.284c0.418-0.148,0.832-0.395,1.254-0.409c0.295-0.009,0.637,0.261,0.884,0.487
			c0.122,0.111,0.148,0.565,0.094,0.59c-0.287,0.13-0.639,0.285-0.92,0.22c-0.485-0.113-0.933-0.382-1.397-0.585
			C127.22,180.486,127.249,180.385,127.277,180.284z"/>
		<path fill="#258DC8" d="M112.2,177.106c0.276-0.049,0.559-0.073,0.826-0.153c0.263-0.078,0.509-0.212,0.821-0.346
			c0,0.468,0,0.845,0,1.362c-0.64-0.264-1.175-0.485-1.71-0.706C112.158,177.21,112.179,177.158,112.2,177.106z"/>
		<path fill="#258DC8" d="M192.235,145.603c-0.24,0.307-0.479,0.615-0.719,0.922c-0.078-0.075-0.155-0.15-0.233-0.225
			c0.277-0.295,0.554-0.59,0.832-0.885C192.155,145.478,192.195,145.541,192.235,145.603z"/>
		<path fill="#258DC8" d="M169.386,170.821c-0.48,0.354-0.86,0.705-1.303,0.935c-0.279,0.144-0.653,0.105-0.984,0.149
			c0.113-0.379,0.116-0.963,0.362-1.096C168.001,170.52,168.663,170.247,169.386,170.821z"/>
		<path fill="#258DC8" d="M97.914,138.429c-0.279-0.499-0.499-0.895-0.821-1.473c0.563,0.283,0.923,0.464,1.393,0.7
			C98.294,137.915,98.133,138.132,97.914,138.429z"/>
		<path fill="#258DC8" d="M171.001,134.504c-0.279,0.381-0.559,0.762-0.838,1.143c-0.081-0.056-0.162-0.112-0.243-0.168
			c0.17-0.457,0.228-0.99,0.788-1.18C170.806,134.367,170.904,134.436,171.001,134.504z"/>
	</g>
</g>
</svg>
