<?xml version="1.0" encoding="utf-8"?>
<!-- Generator: Adobe Illustrator 17.0.0, SVG Export Plug-In . SVG Version: 6.00 Build 0)  -->
<!DOCTYPE svg PUBLIC "-//W3C//DTD SVG 1.1//EN" "http://www.w3.org/Graphics/SVG/1.1/DTD/svg11.dtd">
<svg version="1.1" id="Layer_1" xmlns="http://www.w3.org/2000/svg" xmlns:xlink="http://www.w3.org/1999/xlink" x="0px" y="0px"
	 width="511.806px" height="511.903px" viewBox="0 0 511.806 511.903" enable-background="new 0 0 511.806 511.903"
	 xml:space="preserve">
<g>
	<path fill="#FDFDFD" d="M0,511.903C0,341.301,0,170.699,0,0c170.526,0,341.086,0,511.806,0c0,170.57,0,341.236,0,511.903
		C341.284,511.903,170.659,511.903,0,511.903z M338.81,135.949c-1.541-1.339-2.872-3.255-4.663-3.903
		c-4.57-1.654-9.344-2.743-14.036-4.058c-12.526-1.027-25.059-1.974-37.57-3.158c-2.133-0.202-4.578-0.925-6.18-2.251
		c-6.257-5.18-12.304-10.622-18.276-16.133c-2.129-1.964-3.576-1.599-5.472,0.226c-3.768,3.626-7.421,7.477-11.657,10.48
		c-4.36,3.09-7.118,8.524-14.151,7.972c-7.709-0.605-15.561,0.315-23.328,0.885c-3.868,0.284-7.683,1.272-11.523,1.942
		c-6.027,1.977-12.054,3.954-18.082,5.931c-1.118,0.654-2.334,1.184-3.339,1.981c-6.496,5.152-5.875,13.16-7.373,20.05
		c-4.071,18.726-6.674,37.784-11.082,56.422c-4.227,17.871-9.526,35.528-15.196,53.007c-6.518,20.093-14.902,39.424-27.383,56.713
		c-3.273,4.534-6.382,9.185-9.567,13.782c-20.619,18.145-47.767,22.466-71.605,33.874c0.018,0.261-0.042,0.615,0.078,0.89
		c0.331,0.759,0.727,1.491,1.117,2.222c32.467,60.905,81.228,102.747,146.604,125.015c19.398,6.607,39.36,10.684,59.864,11.873
		c114.115,9.596,209.49-59.325,247.339-139.792c-0.09-0.133-0.151-0.338-0.275-0.389c-1.38-0.57-2.796-1.06-4.154-1.677
		c-22.513-10.231-47.96-14.322-66.933-31.964c-0.518-1.002-0.832-2.201-1.584-2.978c-11.605-11.993-19.701-26.392-25.836-41.551
		c-7.633-18.864-14.565-38.153-19.869-57.78c-6.334-23.44-10.638-47.428-15.793-71.186c-1.575-7.258-2.894-14.576-4.67-21.783
		C343.61,138.141,342.474,135.325,338.81,135.949z M159.932,86.944c36.58-0.05,73.16-0.139,109.74-0.139
		c27.434,0,54.868,0.114,82.301,0.177c2.631,6.61,5.614,13.105,7.809,19.856c3.173,9.76,7.883,18.23,16.318,24.478
		c2.327,1.723,4.35,4.262,5.673,6.855c3.361,6.585,6.75,13.231,9.24,20.172c13.654,38.066,20.994,77.638,26.668,117.496
		c1.571,11.035,4.46,20.992,10.691,30.14c14.524,21.323,32.319,39.782,50.417,57.985c1.585,1.594,3.294,3.066,5.048,4.69
		c46.102-88.761,37.104-221.932-64.06-307.639c-93.599-79.298-234.193-80.923-330.205,2.194
		c-96.81,83.807-108.319,214.619-61.859,304.845c0.437-0.182,0.986-0.256,1.303-0.566c20.937-20.555,41.803-41.215,57.393-66.339
		c3.259-5.253,5.815-11.368,6.986-17.416c4.581-23.661,7.98-47.555,12.768-71.17c4.594-22.655,10.494-45.058,20.008-66.248
		c2.412-5.372,5.38-11.155,9.706-14.871c8.915-7.657,13.958-17.059,17.253-27.992C154.84,97.781,157.631,92.436,159.932,86.944z"/>
	<path fill="#DDDDDE" d="M159.932,86.944c-2.302,5.492-5.092,10.837-6.801,16.507c-3.294,10.932-8.338,20.335-17.253,27.992
		c-4.326,3.716-7.294,9.498-9.706,14.871c-9.514,21.191-15.415,43.593-20.008,66.248c-4.788,23.615-8.188,47.509-12.768,71.17
		c-1.171,6.048-3.726,12.163-6.986,17.416c-15.59,25.124-36.456,45.784-57.393,66.339c-0.316,0.311-0.866,0.384-1.303,0.566
		C-18.745,277.828-7.236,147.016,89.574,63.209c96.012-83.116,236.606-81.491,330.205-2.194
		c101.164,85.706,110.162,218.877,64.06,307.639c-1.754-1.624-3.463-3.096-5.048-4.69c-18.098-18.203-35.893-36.662-50.417-57.985
		c-6.231-9.148-9.12-19.105-10.691-30.14c-5.675-39.859-13.015-79.431-26.668-117.496c-2.489-6.94-5.879-13.587-9.24-20.172
		c-1.323-2.593-3.347-5.131-5.673-6.855c-8.435-6.248-13.145-14.718-16.318-24.478c-2.195-6.751-5.178-13.246-7.809-19.856
		c1.767-0.388,3.635-0.531,5.282-1.212c4.148-1.713,6.811-4.642,6.753-9.449c-0.055-4.575-2.535-7.649-6.591-8.979
		c-2.533-0.831-5.466-0.44-8.221-0.596c0.486-0.755,0.81-1.736,1.489-2.233c4.371-3.204,5.443-7.569,3.772-12.358
		c-1.681-4.82-5.618-6.447-10.67-6.37c-9.957,0.152-19.919-0.031-29.881-0.074c-0.615-0.645-1.229-1.29-1.843-1.936
		c-10.362-9.495-22.135-16.308-36.088-18.974c-1.326-0.304-2.653-0.608-3.979-0.912c-8.588-0.343-17.25-1.562-25.749-0.848
		c-18.232,1.532-34.21,8.739-47.323,21.781c-0.307,0.307-0.613,0.614-0.92,0.922c-10.462,0.035-20.924,0.092-31.385,0.096
		c-4.543,0.001-7.772,2.195-9.171,6.314c-1.402,4.126-0.919,8.192,2.634,11.41c1.013,0.918,1.775,2.113,2.653,3.181
		c-1.821,0.007-3.644-0.044-5.462,0.032c-4.493,0.187-7.557,2.616-8.921,6.704c-1.381,4.138-0.32,8.142,3.377,10.552
		C154.091,85.574,157.173,86.012,159.932,86.944z"/>
	<path fill="#454956" d="M411.97,335.888c18.973,17.642,44.42,21.733,66.933,31.964c1.358,0.617,2.773,1.107,4.154,1.677
		c0.124,0.051,0.185,0.256,0.275,0.389c-37.85,80.467-133.224,149.388-247.339,139.792c-0.009-6.487-0.022-12.974-0.026-19.462
		c-0.034-50.733-0.067-101.466-0.099-152.201c8.12,0.287,16.238,0.691,24.36,0.839c18.839,0.344,37.001-3.067,54.088-11.039
		c10.413-4.858,19.762-11.148,21.648-23.938c10.534,4.443,21.065,8.893,31.604,13.326
		C382.365,323.46,397.168,329.671,411.97,335.888z M245.956,426.065c-0.07,6.831,3.734,10.902,10.12,10.832
		c6.05-0.067,9.817-3.893,9.898-10.055c0.089-6.745-3.857-11.008-10.12-10.933C249.94,415.979,246.018,420.003,245.956,426.065z
		 M245.956,488.105c-0.052,6.268,3.633,10.549,9.273,10.772c6.118,0.242,10.729-4.233,10.746-10.429
		c0.019-6.644-3.572-10.494-9.838-10.547C249.73,477.847,246.01,481.575,245.956,488.105z M265.975,364.303
		c-0.023-5.221-4.952-10.363-9.989-10.324c-4.144,0.032-10.858,5.116-10.189,10.8c0.756,6.428,3.967,10.199,10.398,10.127
		C262.439,374.836,266.005,370.971,265.975,364.303z"/>
	<path fill="#595D67" d="M235.866,338.049c0.033,50.733,0.065,101.466,0.1,152.199c0.004,6.487,0.017,12.974,0.026,19.462
		c-20.504-1.189-40.466-5.266-59.864-11.873c-65.376-22.269-114.138-64.11-146.604-125.015c-0.39-0.732-0.785-1.464-1.117-2.222
		c-0.12-0.275-0.06-0.628-0.078-0.89c23.838-11.407,50.986-15.729,71.605-33.874c2.909-1.104,5.858-2.113,8.721-3.326
		c22.446-9.515,44.874-19.069,67.308-28.611c1.332,6.503,3.858,12.164,9.465,16.349C200.428,331.444,217.532,336.43,235.866,338.049
		z"/>
	<path fill="#F8E2D2" d="M191.955,127.95c3.839-0.67,7.655-1.657,11.523-1.942c7.767-0.57,15.619-1.49,23.328-0.885
		c7.034,0.552,9.792-4.881,14.151-7.972c4.236-3.003,7.889-6.854,11.657-10.48c1.896-1.825,3.344-2.19,5.472-0.226
		c5.972,5.51,12.019,10.953,18.276,16.133c1.602,1.326,4.047,2.049,6.18,2.251c12.511,1.184,25.044,2.131,37.57,3.158
		c3.215,9.392,6.429,18.784,9.646,28.175c1.215,3.547,2.437,7.091,3.654,10.636c-0.397,5.056-0.793,10.112-1.188,15.168
		c-1.072,6.389-1.805,12.857-3.279,19.152c-4.389,18.748-12.273,35.824-25.396,50.162c-2.474,2.703-5.464,4.933-8.938,8.024
		c-1.109-3.475-2.124-5.6-2.433-7.824c-0.87-6.257-1.703-12.541-2.031-18.841c-0.153-2.94-0.924-4.767-3.764-5.485
		c-10.564-2.667-18.687-12.068-31.295-10.085c-3.534,0.556-7.448,0.259-11.006,1.8c-4.879,2.113-9.598,4.717-14.641,6.295
		c-5.852,1.831-8.16,5.145-7.671,11.244c0.288,3.59-0.425,7.31-1.051,10.908c-0.629,3.615-1.71,7.152-2.592,10.723
		c-0.638,0.044-1.276,0.087-1.915,0.131c-23.454-20.442-33.11-47.671-37.585-77.651c0.301,6.122,0.603,12.245,0.904,18.367
		c-4.408-0.821-6.503-4.218-7.301-7.935c-1.374-6.4-2.779-12.979-2.664-19.456c0.105-5.897,2.212-11.759,3.436-17.637
		c1.641,4.269,3.283,8.538,5.237,13.621C183.034,153.658,187.494,140.804,191.955,127.95z"/>
	<path fill="#DDDDDE" d="M173.001,153.86c-1.224,5.878-3.331,11.739-3.436,17.637c-0.115,6.477,1.29,13.057,2.664,19.456
		c0.798,3.717,2.893,7.114,7.301,7.935c1.953,17.239,6.201,33.852,13.534,49.624c-0.276,6.789-0.552,13.577-0.827,20.366
		c-0.568-1.547-1.137-3.095-2.029-5.523c-4.914,13.986-9.579,27.265-14.245,40.544c-22.434,9.542-44.863,19.096-67.309,28.611
		c-2.863,1.214-5.812,2.222-8.721,3.326c3.185-4.597,6.294-9.249,9.567-13.782c12.481-17.289,20.865-36.62,27.383-56.713
		c5.67-17.478,10.969-35.136,15.196-53.007c4.408-18.637,7.011-37.695,11.082-56.422c1.498-6.891,0.878-14.898,7.373-20.05
		c1.005-0.797,2.22-1.327,3.339-1.981C173.582,140.541,173.291,147.2,173.001,153.86z"/>
	<path fill="#DDDDDE" d="M411.97,335.888c-14.801-6.217-29.605-12.427-44.403-18.652c-10.538-4.433-21.069-8.883-31.604-13.326
		c-4.671-13.28-9.341-26.56-14.259-40.541c-0.867,2.411-1.424,3.961-1.981,5.51c-0.285-6.778-0.571-13.555-0.856-20.332
		c3.737-11.234,7.728-22.392,11.099-33.735c1.617-5.442,2.062-11.233,3.037-16.867c4.671,0.108,5.634-3.764,6.683-6.872
		c3.346-9.917,2.747-20.17,1.596-30.358c-0.266-2.351-1.558-4.585-2.378-6.873c-0.031-5.965-0.062-11.929-0.094-17.894
		c3.664-0.624,4.8,2.193,5.408,4.662c1.776,7.207,3.095,14.525,4.67,21.783c5.155,23.757,9.459,47.746,15.793,71.186
		c5.304,19.627,12.236,38.916,19.869,57.78c6.134,15.159,14.23,29.558,25.836,41.551
		C411.137,333.686,411.452,334.885,411.97,335.888z"/>
	<path fill="#353846" d="M159.932,86.944c-2.76-0.932-5.842-1.37-8.204-2.911c-3.697-2.41-4.757-6.414-3.377-10.552
		c1.364-4.087,4.428-6.516,8.921-6.704c1.818-0.076,3.641-0.025,5.464-0.03c5.418,0.045,10.834,0.089,16.251,0.133
		c51.03,0.021,102.06,0.043,153.09,0.064c5.707-0.066,11.414-0.132,17.121-0.199c2.753,0.157,5.687-0.233,8.219,0.597
		c4.056,1.33,6.536,4.404,6.591,8.979c0.057,4.807-2.605,7.736-6.753,9.449c-1.647,0.68-3.515,0.823-5.282,1.212
		c-27.433-0.063-54.867-0.177-82.301-0.177C233.092,86.805,196.512,86.894,159.932,86.944z"/>
	<path fill="#353846" d="M173.001,153.86c0.291-6.66,0.582-13.319,0.873-19.979c6.027-1.977,12.054-3.954,18.082-5.931
		c-4.46,12.854-8.921,25.708-13.718,39.531C176.283,162.398,174.642,158.129,173.001,153.86z"/>
	<path fill="#353846" d="M338.81,135.949c0.031,5.965,0.062,11.929,0.093,17.894c-1.815,4.341-3.631,8.682-5.446,13.023
		l-0.045-0.067c-1.219-3.545-2.44-7.09-3.655-10.636c-3.217-9.391-6.431-18.784-9.646-28.175c4.692,1.315,9.467,2.404,14.036,4.058
		C335.938,132.694,337.269,134.61,338.81,135.949z"/>
	<path fill="#454956" d="M178.987,66.88c-5.416-0.044-10.832-0.088-16.251-0.133c-0.879-1.069-1.641-2.265-2.655-3.182
		c-3.553-3.218-4.036-7.283-2.634-11.41c1.4-4.119,4.628-6.313,9.171-6.314c10.462-0.003,20.924-0.06,31.387-0.095
		c0.341-0.052,0.681-0.105,1.021-0.158c17.956-0.012,35.912-0.024,53.869-0.035c1.712,0.017,3.425,0.034,5.137,0.051
		c17.956-0.006,35.912-0.013,53.868-0.019c0.669,0.042,1.338,0.085,2.007,0.127c9.96,0.044,19.922,0.227,29.879,0.075
		c5.052-0.077,8.989,1.55,10.67,6.37c1.671,4.789,0.599,9.153-3.772,12.358c-0.678,0.497-1.003,1.477-1.489,2.233
		c-5.705,0.065-11.412,0.131-17.12,0.197c-1.711-0.365-3.421-1.045-5.131-1.047c-47.6-0.057-95.2-0.057-142.8-0.003
		C182.425,65.895,180.706,66.537,178.987,66.88z"/>
	<path fill="#FDFDFD" d="M312.063,43.776c-10.362-9.495-22.135-16.307-36.088-18.974c-1.326-0.304-2.653-0.608-3.98-0.912
		c-8.588-0.343-17.249-1.562-25.748-0.848c-18.232,1.532-34.21,8.739-47.323,21.781c0.11,0.245,0.144,0.5,0.102,0.765
		c17.956-0.012,35.912-0.024,53.869-0.035c1.712,0.017,3.425,0.034,5.137,0.051c17.956-0.006,35.912-0.013,53.868-0.019
		c0.669,0.042,1.338,0.085,2.006,0.128C313.291,45.068,312.677,44.422,312.063,43.776z"/>
	<path fill="#DDDDDE" d="M198.924,44.823c0.11,0.245,0.144,0.5,0.102,0.765c-0.34,0.053-0.679,0.106-1.021,0.158
		C198.311,45.438,198.618,45.13,198.924,44.823z"/>
	<path fill="#353846" d="M319.723,268.88c0.557-1.55,1.115-3.1,1.982-5.511c4.917,13.981,9.588,27.261,14.259,40.541
		c-1.887,12.79-11.235,19.079-21.648,23.938c-17.087,7.972-35.25,11.384-54.088,11.039c-8.122-0.148-16.239-0.553-24.36-0.839
		c-18.335-1.617-35.439-6.604-50.438-17.8c-5.607-4.185-8.133-9.846-9.465-16.349c4.665-13.279,9.331-26.557,14.245-40.544
		c0.892,2.429,1.46,3.976,2.029,5.523c2.811,8.679,9.425,13.916,16.956,18.034c18.123,9.91,37.722,12.231,57.964,10.373
		c13.87-1.273,27.157-4.691,38.98-12.421C312.197,280.901,317.416,276.095,319.723,268.88z"/>
	<path fill="#353846" d="M245.956,426.065c0.062-6.061,3.984-10.085,9.898-10.156c6.263-0.075,10.209,4.188,10.12,10.933
		c-0.081,6.161-3.848,9.988-9.898,10.055C249.69,436.966,245.886,432.895,245.956,426.065z"/>
	<path fill="#353846" d="M245.956,488.105c0.054-6.53,3.775-10.258,10.181-10.203c6.265,0.053,9.856,3.903,9.838,10.547
		c-0.017,6.196-4.628,10.671-10.746,10.429C249.589,498.654,245.903,494.372,245.956,488.105z"/>
	<path fill="#353846" d="M265.975,364.303c0.03,6.667-3.536,10.533-9.781,10.603c-6.431,0.072-9.642-3.699-10.398-10.127
		c-0.669-5.684,6.046-10.768,10.189-10.8C261.023,353.941,265.951,359.082,265.975,364.303z"/>
	<path fill="#353846" d="M333.003,197.946c-0.976,5.633-1.42,11.424-3.037,16.866c-3.371,11.343-7.363,22.501-11.099,33.735
		c-0.911,1.372-1.846,2.728-2.729,4.117c-11.004,17.294-25.257,30.854-44.963,37.551c-5.672,1.928-12.019,3.175-17.937,2.807
		c-12.943-0.805-24.113-6.818-34.338-14.538c-10.761-8.126-18.875-18.557-25.836-29.971c-7.333-15.772-11.582-32.385-13.534-49.624
		c-0.302-6.123-0.603-12.245-0.904-18.367c4.475,29.979,14.131,57.209,37.585,77.651c0.638-0.044,1.276-0.087,1.915-0.131
		c0.883-3.571,1.963-7.108,2.592-10.723c0.626-3.598,1.339-7.319,1.051-10.908c-0.489-6.099,1.819-9.413,7.671-11.244
		c5.043-1.578,9.762-4.182,14.641-6.295c3.559-1.541,7.472-1.244,11.006-1.8c12.608-1.983,20.731,7.418,31.295,10.085
		c2.841,0.717,3.611,2.544,3.764,5.485c0.328,6.3,1.161,12.584,2.031,18.841c0.309,2.223,1.324,4.349,2.433,7.824
		c3.474-3.091,6.464-5.321,8.938-8.024c13.123-14.338,21.007-31.414,25.396-50.162c1.474-6.295,2.207-12.763,3.279-19.152
		c0,0,0.49,0.039,0.49,0.039l0.483-0.093C333.132,187.258,333.067,192.602,333.003,197.946z M226.493,231.088
		c-0.917,11.523-1.609,22.02,3.531,31.355c2.755,5.003,7.527,9.014,11.853,12.965c1.409,1.287,4.836,1.935,6.328,1.089
		c1.318-0.747,1.921-4.084,1.619-6.093c-0.73-4.858-2.172-9.609-3.413-14.757c3.225,0,6.368,0,9.512,0c3.035,0,6.069,0,9.16,0
		c-1.307,5.658-2.776,10.437-3.448,15.326c-0.813,5.908,2.001,7.65,7.426,4.95c6.901-3.434,11.449-8.943,13.883-16.216
		c3.023-9.032,2.769-18.242,1.583-28.62C265.183,231.088,246.004,231.088,226.493,231.088z"/>
	<path fill="#595D67" d="M333.196,181.914c0,0-0.483,0.093-0.483,0.093s-0.49-0.039-0.49-0.039
		c0.396-5.056,0.792-10.112,1.188-15.168c0.001,0,0.046,0.067,0.046,0.067C333.371,171.882,333.283,176.898,333.196,181.914z"/>
	<path fill="#F8E2D2" d="M193.064,248.512c6.96,11.414,15.075,21.846,25.836,29.971c10.225,7.721,21.395,13.733,34.338,14.538
		c5.918,0.368,12.265-0.879,17.937-2.807c19.706-6.698,33.958-20.258,44.963-37.551c0.884-1.389,1.818-2.745,2.729-4.117
		c0.286,6.777,0.571,13.554,0.856,20.332c-2.307,7.215-7.526,12.021-13.587,15.984c-11.823,7.73-25.11,11.148-38.98,12.421
		c-20.242,1.858-39.841-0.463-57.964-10.373c-7.531-4.118-14.145-9.355-16.956-18.034
		C192.512,262.09,192.788,255.301,193.064,248.512z"/>
	<path fill="#F8E2D2" d="M333.196,181.914c0.087-5.016,0.175-10.032,0.262-15.048c1.815-4.341,3.63-8.682,5.446-13.023
		c0.82,2.288,2.112,4.522,2.378,6.873c1.151,10.189,1.75,20.441-1.596,30.358c-1.048,3.107-2.012,6.98-6.683,6.872
		C333.067,192.602,333.132,187.258,333.196,181.914z"/>
	<path fill="#595D67" d="M178.987,66.88c1.719-0.343,3.438-0.985,5.158-0.987c47.6-0.054,95.2-0.055,142.8,0.003
		c1.711,0.002,3.42,0.683,5.131,1.047C281.047,66.923,230.017,66.901,178.987,66.88z"/>
	<path fill="#F8E2D2" d="M226.493,231.088c19.511,0,38.69,0,58.034,0c1.186,10.378,1.44,19.588-1.583,28.62
		c-2.434,7.272-6.982,12.782-13.883,16.216c-5.425,2.699-8.239,0.958-7.426-4.95c0.672-4.889,2.141-9.668,3.448-15.326
		c-3.09,0-6.125,0-9.16,0c-3.144,0-6.287,0-9.512,0c1.241,5.149,2.683,9.9,3.413,14.757c0.302,2.01-0.302,5.346-1.619,6.093
		c-1.492,0.846-4.919,0.197-6.328-1.089c-4.326-3.951-9.098-7.962-11.853-12.965C224.884,253.108,225.576,242.61,226.493,231.088z"
		/>
</g>
</svg>
